<?xml version="1.0" encoding="UTF-8" standalone="no"?>
<svg
   xmlns:dc="http://purl.org/dc/elements/1.1/"
   xmlns:cc="http://creativecommons.org/ns#"
   xmlns:rdf="http://www.w3.org/1999/02/22-rdf-syntax-ns#"
   xmlns:svg="http://www.w3.org/2000/svg"
   xmlns="http://www.w3.org/2000/svg"
   viewBox="0 0 127.7535 206.40666"
   height="206.40666"
   width="127.7535"
   xml:space="preserve"
   id="svg815"
   version="1.1"><metadata
     id="metadata821"><rdf:RDF><cc:Work
         rdf:about=""><dc:format>image/svg+xml</dc:format><dc:type
           rdf:resource="http://purl.org/dc/dcmitype/StillImage" /><dc:title></dc:title></cc:Work></rdf:RDF></metadata><defs
     id="defs819"><clipPath
       id="clipPath843"
       clipPathUnits="userSpaceOnUse"><path
         id="path841"
         d="m 36,545.418 h 93.409 V 422.011 H 36" /></clipPath><clipPath
       id="clipPath951"
       clipPathUnits="userSpaceOnUse"><path
         id="path949"
         d="M 456.474,585.558 H 576 V 423.757 H 456.474" /></clipPath></defs><g
     transform="matrix(1.3333333,0,0,-1.3333333,-809.10469,815.85126)"
     id="g823"><g
       transform="translate(141.27303,26.330458)"
       id="g945"><g
         clip-path="url(#clipPath951)"
         id="g947"><path
           id="path953"
           style="fill:#deddde;fill-opacity:1;fill-rule:nonzero;stroke:none"
           d="m 498.7123,548.6909 c -1.0565,0.2945 -1.6849,1.2922 -1.9559,2.3174 -0.3261,0.4673 -0.2986,1.2567 -0.2278,1.9205 0.2003,0 0.0354,0.271 0.1295,0.3377 0.3339,0.5263 0.8327,0.7621 1.5907,0.6246 0.0354,-0.1611 0.2985,0 0.436,-0.1336 0.1336,-0.0667 0.5263,-0.2632 0.6284,0 0.0982,0.9976 0,1.5319 0.0982,2.5255 0.2003,0.0275 -0.0354,0.4281 0.2003,0.4635 0.7266,2.0894 2.8828,3.146 5.0745,3.6761 1.2882,0.3339 2.8161,0.2985 4.179,0.5696 1.1272,0.6559 1.5199,2.0188 1.5907,3.5112 h 0.0275 c 0.1374,0.4281 0,0.8641 -0.1965,1.1272 -0.758,0.3615 -0.8916,-0.4006 -1.3275,-0.7933 -0.3927,-0.7345 -0.8288,-1.6614 -1.8577,-1.626 -0.0275,0.2002 -0.2985,0.0353 -0.3968,0.1335 -0.4281,0.2317 -0.8287,0.5931 -0.9229,1.1273 -0.0707,0.86 0.6285,1.1272 1.0212,1.6928 -0.5618,0.1648 -0.5618,-0.4989 -0.927,-0.7345 -0.2003,-0.5302 -0.6638,-0.8288 -1.029,-1.2255 -0.4909,-0.2317 -0.8602,-0.5656 -1.4258,-0.5656 -0.3927,0.0982 -0.7619,0.2711 -0.9935,0.6325 -0.1611,0.8287 0.3023,1.2293 0.5655,1.7203 -0.0629,0.102 -0.2003,0.0392 -0.2632,0.0666 -0.8012,-0.6912 -1.2293,-1.6219 -2.0266,-2.2858 -0.4635,-0.161 -1.1273,-0.4988 -1.52,-0.0354 -0.2356,0.1375 -0.2985,0.5343 -0.4713,0.8288 0.0707,0.6991 0.5696,0.8641 0.8327,1.4258 h 0.0667 c 0,0.1728 -0.2357,0.3376 -0.4635,0.3376 -0.5655,-0.102 -0.9661,-0.4005 -1.5631,-0.3652 -0.2632,0.2278 -0.6284,0.4281 -0.7934,0.7934 -0.0353,0.4634 -0.1611,1.1979 0.3024,1.3903 0.6246,0.7345 2.0188,0.2357 2.6825,0.8287 -0.3298,0.7621 -1.5945,0.9623 -1.2921,2.0896 0.2632,0.2356 0.3339,0.6363 0.8915,0.6363 l 0.4006,0.0274 c 0.1336,-0.1296 0.4281,-0.1296 0.6638,-0.1296 0.1336,-0.3339 0.5617,-0.2985 0.7266,-0.5616 0.5342,-0.2711 0.9977,-0.9623 1.791,-0.8012 0.169,0.1374 0.0707,0.4006 0.0354,0.5655 -0.4281,0.5971 -0.9936,0.9269 -0.8287,1.8892 0.3652,0.601 0.9936,0.8287 1.7556,0.7267 1.3275,-0.6599 1.2921,-2.5176 2.7571,-2.9458 0.2632,0 0.4243,0.1296 0.4243,0.4282 -0.326,0.7344 -1.355,1.6573 -0.5617,2.5568 0.3339,0.326 0.9623,0.5263 1.5632,0.3613 -0.4714,0.4635 -1.1626,1.0644 -0.9348,2.0934 0.2003,0.3614 0.3693,0.6246 0.762,0.6913 0.4988,0.0982 0.9622,-0.0667 1.3,-0.3653 0.1649,-0.4634 0.5263,-0.8916 0.9898,-1.1272 0.1649,0.0707 0.4006,0.2986 0.4635,0.4988 -0.0629,0.7659 -0.927,0.8641 -1.355,1.3275 -0.5343,0.0668 -0.6363,0.5302 -1.0331,0.8288 -0.2591,0.4281 -0.6638,0.7973 -0.5577,1.4924 0.1296,0.4635 0.3927,0.8602 0.758,1.1272 0.5617,0.1611 1.0605,-0.0667 1.4258,-0.3652 0.3339,-0.2357 0.4634,-0.9269 0.9976,-0.8287 0.1021,0.0667 0.0314,0.2278 0.165,0.267 -0.0629,0.3967 -0.4006,0.5971 -0.6009,0.8916 -0.7267,0.6991 -1.7243,1.4965 -1.4258,2.8869 0.0708,0.2277 0.2003,0.4005 0.4006,0.593 0.2357,0.3377 0.6009,0.3652 1.0644,0.3377 0.0982,-0.1375 0.4281,-0.1021 0.5263,-0.2357 0.2985,-0.3652 0.5617,-0.7658 0.8012,-1.2567 0.326,-0.1375 0.491,0.1924 0.3967,0.4635 0.0943,0.428 -0.2985,0.5654 -0.2356,0.9622 l -0.0354,0.6284 h 0.0354 l 0.102,0.593 c 0.2003,0 0.0275,0.2003 0.1336,0.2711 0.2278,0.4634 0.7305,0.8286 1.3197,0.7894 0.2356,-0.0274 0.3024,-0.2985 0.6009,-0.2631 0.6009,-0.3614 0.6284,-1.2255 0.4988,-2.0188 -0.2003,-0.1336 -0.1649,-0.2985 -0.2631,-0.5342 v -0.4634 c 0.8287,-0.1022 1.1272,1.0918 2.1483,0.7619 0.5301,-0.3338 0.9977,-0.6991 0.762,-1.5553 -0.4242,-1.2608 -1.8892,-1.2922 -2.1838,-2.5883 0.1022,-0.1296 0.3299,-0.2003 0.5303,-0.1649 0.4634,0.4634 0.8915,0.9622 1.5945,1.19 l 0.495,0.0707 c 0,-0.2043 0.267,-0.0353 0.3298,-0.1335 0.1965,-0.2357 0.5971,-0.4007 0.6638,-0.762 0.0628,-0.6638 -0.1021,-1.3276 -0.4319,-1.8264 -0.1965,0.0354 -0.2947,-0.2003 -0.3301,-0.3298 -0.8995,-0.762 -2.1601,-1.2293 -2.7492,-2.2545 v -0.2356 l -0.1022,-0.0668 c 0,-0.161 0.1297,-0.1964 0.2358,-0.2631 0.593,0.0354 0.8208,0.4635 1.186,0.8287 0.4006,0.2631 0.7305,0.7344 1.3275,0.6991 0.1375,-0.1336 0.4673,-0.0982 0.5617,-0.2357 0.3652,-0.2003 0.5027,-0.7266 0.436,-1.2567 -0.1336,-0.0354 -0.1649,-0.1965 -0.1336,-0.3694 -0.267,-0.0274 -0.1021,-0.3298 -0.3024,-0.4281 -0.1649,-0.102 -0.2593,-0.2002 -0.2593,-0.4005 0.3927,-0.1258 0.9898,-0.0629 1.2608,-0.5263 0.1611,-0.2358 0.2591,-0.8642 0.0667,-1.198 0.0591,-0.8562 -1.7241,-0.9229 -0.9348,-1.8223 0.6324,0.102 0.9348,0.6638 1.1,1.2292 0.7617,1.0919 1.4216,2.6551 3.2794,2.3527 0.2318,-0.0353 0.3023,-0.2631 0.5301,-0.3339 0.1023,-0.2277 0.1336,-0.3927 0.169,-0.6283 -0.1021,-1.0919 -1.1939,-1.4258 -1.4296,-2.4823 0.1021,-0.2357 0.3298,-0.3377 0.5616,-0.4006 1.0957,0.6284 1.5279,1.9205 2.8908,2.1916 0.7305,0.1257 1.2568,-0.2003 1.5238,-0.6638 0.2003,-1.2293 -0.5969,-1.8263 -1.3943,-2.3919 -0.2002,-0.2003 -0.9269,-0.0628 -0.6599,-0.6245 1.5554,-0.4006 3.4092,1.253 4.4776,-0.3378 0.0667,-0.2985 0.326,-0.428 0.2316,-0.8286 -0.102,-0.2279 -0.2002,-0.3928 -0.2669,-0.6638 -0.5302,-0.4909 -1.2255,-0.7895 -2.0542,-0.6913 -0.1061,0.2004 -0.4006,0.0276 -0.5655,0.1296 -0.5029,0.0354 -0.7974,0.3339 -1.3629,0.2985 0.1333,-0.4634 0.6676,-0.6284 1.0957,-0.8915 0.3026,-0.2003 0.6324,-0.4635 0.6324,-0.8995 0.0313,-0.5263 -0.2711,-0.9623 -0.6953,-1.1626 -0.0706,-0.0275 -0.1728,0.0708 -0.2316,-0.0275 l -0.6992,-0.0667 c -0.2316,0.0667 -0.3339,0.2945 -0.6675,0.2945 -1.0526,0.5656 -0.2907,2.4194 -1.524,2.8201 -0.2594,0 -0.3968,-0.2671 -0.2594,-0.5302 0.0275,-0.2632 0.2594,-0.4006 0.3301,-0.7267 0.0942,-0.5301 0.2316,-1.5278 -0.3026,-1.8577 -0.5576,-0.3338 -0.86,-0.1689 -1.52,-0.1335 -0.4318,0.4634 -0.7617,1.0605 -0.5968,1.9205 -0.1649,0.169 -0.1377,0.4675 -0.2003,0.6991 -0.2357,0.2632 -0.4359,0.6992 -0.9269,0.6285 -0.2003,-0.1297 -0.2357,-0.4673 -0.1375,-0.7305 0.3337,-0.4281 0.3024,-1.2255 0.2317,-1.8185 -0.2317,-0.1061 -0.165,-0.2711 -0.2945,-0.4714 -0.3968,-0.2277 -0.7307,-0.6912 -1.4298,-0.4909 -0.5302,0.1612 -0.6597,0.6912 -0.6951,1.1901 0.1649,0.0667 0,0.3652 0.1296,0.4634 -0.0589,0.3653 0.5026,0.6638 0.0353,0.927 -0.4594,-0.1336 -0.5301,-0.762 -0.6951,-1.1901 h -0.0354 c -0.2946,-1.1626 0.0708,-2.3212 0.7305,-3.0203 0.9269,-0.9898 2.1249,-1.5553 3.6841,-1.5553 0.0629,-0.169 0.2947,0 0.4281,-0.1336 2.0541,-0.593 4.0494,-1.8538 4.5404,-4.1083 0.0353,-0.5027 0.3337,-0.8641 0.3024,-1.4296 0.2277,-0.2632 0.7304,-0.0354 1.0605,-0.2003 0,-0.1611 0.267,0 0.3298,-0.1336 0.9977,-0.491 1.8224,-1.2922 2.1603,-2.4469 0.1649,-0.7658 0.0626,-1.6927 -0.4006,-2.1916 -0.3967,-0.1649 -0.7974,-0.4635 -1.3237,-0.2985 -0.3339,0.1336 -0.4988,0.4321 -0.9661,0.3968 -0.5263,-0.3339 -1.1942,-0.5618 -1.9246,-0.3968 -0.1296,0.2985 -0.5971,0.3339 -0.8916,0.2357 -0.4321,-0.1728 -0.8327,-0.5656 -1.3628,-0.2711 l -0.3968,0.0354 c -0.1649,0.1649 -0.4948,0.0983 -0.6244,0.2357 -0.4713,-0.1374 -0.9309,-0.3024 -1.4298,-0.3653 -0.0626,0.1925 -0.3652,0.0275 -0.5339,0.1296 -0.7267,0.6638 -1.3866,-0.2357 -2.2191,-0.165 -0.7974,-0.0707 -1.3945,0.927 -2.0895,0.165 -0.7621,-0.4281 -1.6261,0.4634 -2.3841,0.0983 -0.597,-0.2279 -1.4258,-0.4007 -1.9599,0 -0.267,-0.0354 -0.2945,0.2356 -0.5931,0.1374 -0.4988,-0.3024 -1.1272,-0.5381 -1.8263,-0.3653 l -0.593,0.4281 c -0.8287,-0.3652 -2.062,-0.7266 -2.7887,-0.0628 -0.4948,-0.3024 -1.1272,-0.5381 -1.8263,-0.3653 -0.3653,0.0942 -0.8288,0.4281 -1.1586,0.0942 -0.2318,0.0707 -0.2318,-0.1296 -0.4321,-0.1296 -0.4594,0.0629 -1.0919,-0.1649 -1.3864,0.165 -0.271,-0.0667 -0.3692,0.0983 -0.4988,0.2357 -0.5029,-0.1374 -1.0056,-0.436 -1.5868,-0.436 -0.1533,0 -0.3103,0.0196 -0.4752,0.0707 m 8.892,3.9119 c 0.4989,-0.9661 0.6638,-2.2229 1.4887,-2.9221 1.2647,-0.5617 1.9913,0.8995 3.0202,0 0.6638,-0.0628 1.3905,0 1.7243,0.5026 -0.0354,0.656 -0.3967,1.0566 -0.5616,1.689 h -0.1062 c -0.0667,0 0,0.0943 -0.0313,0.1649 -0.2986,0.6992 -0.9623,0.9977 -1.8264,0.9977 v 0.0314 c -0.2631,-0.2003 -0.8561,0 -1.0251,-0.3299 -0.6638,-0.3339 -1.0919,0.4281 -1.622,0.2985 v 0.0314 c -0.2632,-0.2317 -1.0959,0.1335 -1.0606,-0.4635 m 11.072,0.1965 c -0.1649,-0.334 0.1295,-0.4635 0.1021,-0.7974 0.5301,-0.762 0.5576,-1.8538 1.4257,-2.3212 0.7974,-0.2278 1.4532,0.1649 2.0542,0.3653 0.4673,-0.4006 1.1626,-0.4989 1.8538,-0.3653 1.2606,0.4674 0,1.4925 0,2.2583 -0.1611,0.4635 -0.6286,0.7974 -1.0567,0.9898 -0.6676,0.0707 -1.5591,0.1061 -2.0539,-0.2278 -0.0708,0 -0.2005,-0.0354 -0.1731,0.0983 l -0.1924,-0.0983 c -0.0353,0.0354 -0.0667,0.0354 -0.0353,0.0983 -0.3024,0.0667 -0.5027,0.2002 -0.7618,0.267 -0.0786,0.008 -0.1532,0.0116 -0.2201,0.0116 -0.3731,0 -0.6323,-0.1373 -0.9425,-0.2786 m -21.2562,-0.8995 c 0.0707,-0.9898 0.4635,-1.9167 1.2922,-2.2191 0.7345,-0.1964 1.3,0.1021 1.8971,0.2671 0.3927,-0.4281 1.4571,-0.3299 1.8851,-0.2671 0.2357,0.1649 0.2986,0.3024 0.4635,0.5302 -0.5301,0.8287 -0.4988,2.0895 -1.5553,2.5255 -0.5302,0.2985 -1.5632,0.2985 -2.0895,-0.0354 -0.3024,-0.0982 -0.4006,0.0983 -0.6009,0.2278 -0.2632,0.2003 -0.5931,0.0354 -0.7934,0.1375 -0.2002,-0.3024 -0.597,-0.267 -0.4988,-0.8288 h -0.0629 l 0.0629,-0.3377 m 12.639,1.6927 c 0.4909,0.2986 1.1272,0.5343 1.8185,0.3693 0.0353,-0.2318 0.3692,0.0314 0.3692,-0.2318 h 0.6638 c 0.4281,0.326 1.2214,0.326 1.8185,0.1611 v -0.0275 c 0.267,0 0.3653,-0.2003 0.6363,-0.2003 0.3927,0.1649 0.7933,0.2985 1.186,0.4281 0.8681,0.2003 1.3982,-0.8249 2.1916,-0.2003 0.7304,0.2357 1.4924,0 2.0228,-0.2986 l 0.8915,0.2986 c 0.9662,0.5302 1.5984,-0.597 2.3879,0 0.0354,0.1021 0.1375,0.0354 0.2318,0.0707 0.2357,0.2317 0.7621,0.0942 1.1626,0.1296 0.165,-0.1296 0.3299,-0.2986 0.6323,-0.2278 -0.0668,0.3927 -0.1963,0.7266 -0.3966,1.0564 -1.1272,0.8642 -2.5255,1.2255 -4.1123,1.3276 v 0.0354 c -2.9536,-0.2003 -5.64,0.0982 -7.5252,1.8852 -0.4988,0.4988 0.1296,0.9976 0.2278,1.4257 0.3299,0.8994 0.436,2.0267 0.6284,3.0165 h 0.0708 c 0.0313,0.2003 -0.1336,0.5341 0.1296,0.6009 v 0.593 c 0.4634,1.5907 1.1625,3.1225 2.4193,4.2144 -0.9898,-0.3614 -1.4217,-1.1626 -2.0542,-1.96 -0.2277,-0.4594 -0.5301,-0.7933 -0.593,-1.3196 -0.7345,-1.5632 -0.6363,-3.7194 -1.4924,-5.1452 -0.762,-1.355 -2.1878,-2.2819 -3.6802,-2.82 -3.0165,-1.2529 -7.3996,0.5656 -9.4538,-2.0816 -0.1021,-0.0708 0.0708,-0.3377 -0.1296,-0.3377 l 0.0942,-0.2986 c 0.2357,-0.1295 0.4989,-0.0274 0.7345,-0.1924 0.165,0.0275 0.3339,-0.0354 0.3927,-0.1336 0.4714,-0.2003 0.7699,0.1336 1.198,0.1611 0.8287,0.2357 1.355,-0.2003 2.0895,-0.2278 0.5302,0.2003 1.1626,0.4635 1.7911,0.2278 v -0.0275 h 0.1649 c 0.8915,-0.5342 1.5906,0.4281 2.553,0.0275 v -0.0275 c 0.0391,0.008 0.0745,0.0118 0.1099,0.0118 0.3652,0 0.4515,-0.4322 0.8208,-0.2829 m -1.3275,14.328 c 0.5617,-0.165 1.1901,-0.334 1.6535,-0.6009 0.8641,-0.4989 1.956,-0.9899 2.2545,-2.0542 0.1374,-0.3652 0.271,-0.7933 0.4006,-1.1272 0.4281,0.8287 0.864,1.626 1.0918,2.6197 h -0.0667 c -0.0275,0.0982 -0.1257,0.2002 -0.0982,0.3614 -0.4006,0.1374 -0.2985,0.5655 -0.4988,0.8012 -0.1296,0.9269 -0.3299,1.2254 -0.3653,2.1836 -0.326,1.2609 -0.1649,2.8241 -0.326,4.1437 -0.1374,-0.9897 -0.1374,-2.1169 -0.2003,-3.1813 0,0.0707 0.1336,-0.2003 -0.0353,-0.1649 v -0.7975 c 0.1335,-0.5576 0.0982,-1.7202 0.2356,-2.4822 -0.0392,-0.3023 -0.4359,-0.1375 -0.6638,-0.1649 -0.2003,0.0982 -0.4005,0.326 -0.6283,0.3653 -0.7345,0.161 -1.3276,0.4242 -2.062,0.5262 v 0.0354 c -0.5303,-0.0707 -1.0919,0.2003 -1.4572,0.1021 v 0.0275 c -0.597,-0.0275 -1.2608,0.0707 -1.7243,-0.165 l 1.096,-0.102 v -0.0629 c 0.2944,0.0354 0.6283,0 0.8286,-0.1295 0.0825,-0.0512 0.1925,-0.0433 0.2986,-0.0433 0.1099,0 0.2158,-0.008 0.267,-0.0903 m 6.461,3.0124 c 0.102,-0.165 0.102,-0.5302 0.4673,-0.4241 0.2985,0.2945 0.6324,0.4948 0.7973,0.8916 0.0942,0.2002 0.1296,0.4006 0.3299,0.5655 -0.0983,0.428 0.2356,0.593 0.267,0.9269 -0.8954,-0.2632 -1.6887,-0.9977 -1.8615,-1.9599 m -6.2332,1.9599 c 0.1336,-0.4989 0.1336,-1.0918 0.4635,-1.4258 -0.1296,-0.2631 0.2356,-0.2003 0.1335,-0.428 0.165,-0.2711 0.436,-0.4988 0.8013,-0.3378 0.6283,0.4006 0.0274,1.1665 0,1.7281 -0.4714,0.6913 -1.2293,1.0919 -2.0267,1.2922 l 0.6284,-0.8287" /><path
           id="path955"
           style="fill:#deddde;fill-opacity:1;fill-rule:nonzero;stroke:none"
           d="m 500.4758,481.8118 c 0,0.3299 -0.3378,0.4948 -0.2711,0.9269 0.7974,-0.6678 1.2333,-1.8538 1.1272,-2.8869 -0.695,0.3653 -0.3652,1.4296 -0.8561,1.96" /><path
           id="path957"
           style="fill:#deddde;fill-opacity:1;fill-rule:nonzero;stroke:none"
           d="m 503.5589,478.2652 c -0.2003,0.1962 -0.2003,0.4948 -0.3652,0.6951 -0.165,1.2214 -0.4006,2.3211 -0.8994,3.3109 v 0.2711 c 1.3275,-0.9662 1.2646,-2.985 1.6927,-4.6426 -0.0549,-0.0353 -0.0982,-0.0509 -0.1295,-0.0509 -0.1769,0 -0.1337,0.3573 -0.2986,0.4164" /><path
           id="path959"
           style="fill:#deddde;fill-opacity:1;fill-rule:nonzero;stroke:none"
           d="m 528.6915,482.5423 c 0.4597,-0.1061 -0.102,-0.3653 0,-0.601 -0.2669,-0.3298 -0.2003,-0.9623 -0.7342,-1.0251 0.0351,0.6953 0.4044,1.1272 0.7342,1.6261" /><path
           id="path961"
           style="fill:#deddde;fill-opacity:1;fill-rule:nonzero;stroke:none"
           d="m 507.4041,474.6832 c -1.0919,0.5615 -2.1917,1.1272 -3.3817,1.5238 -0.2003,0.3339 -0.6638,0.3339 -0.9308,0.5655 -1.2608,0.762 -2.3173,1.7243 -3.315,2.8477 -0.1649,0.3337 -0.4947,0.5969 -0.6284,0.9621 -0.4005,0.6638 -1.029,1.0918 -1.4924,1.626 v 0.2003 c 0.5263,-0.1374 0.864,-0.6322 1.2922,-0.9269 1.19,-1.4649 2.3839,-2.8513 4.0454,-3.9472 0.4006,-0.3024 0.8915,-0.5968 1.3629,-0.7971 0,-0.2672 0.2985,-0.0708 0.3927,-0.1965 1.8892,-0.8681 3.6173,-1.8931 5.1727,-3.2875 v -0.1649 c -1.0291,0.3298 -1.4925,1.2293 -2.5176,1.5947" /><path
           id="path963"
           style="fill:#deddde;fill-opacity:1;fill-rule:nonzero;stroke:none"
           d="m 518.7784,471.3329 c 0,0.4988 0.593,0.3927 0.7895,0.7305 1.0328,0.9268 2.2583,1.4219 3.0202,2.5175 1.6574,1.4612 3.0518,3.7785 4.7093,5.373 0.7973,0.931 1.9245,1.5869 2.9143,2.3173 h 0.2003 c -0.1651,-0.5971 -0.8248,-0.6951 -1.2255,-1.1547 -2.7219,-2.3212 -4.2065,-5.2119 -6.83,-7.4663 -1.0251,-0.9269 -2.1877,-1.7243 -3.4445,-2.3173 h -0.1336" /><path
           id="path965"
           style="fill:#deddde;fill-opacity:1;fill-rule:nonzero;stroke:none"
           d="m 524.9133,478.8267 h 0.0667 l 0.0591,0.8249 c 0.2002,0.0707 0.0391,0.3652 0.1687,0.5301 0.1649,0.7032 0.5617,1.3591 0.9269,1.96 h 0.2319 c 0.1649,-0.4676 -0.4322,-0.4676 -0.2947,-0.8956 -0.1963,-0.1296 -0.165,-0.3299 -0.2671,-0.5615 v -0.2711 c -0.2671,-0.0669 -0.0982,-0.3967 -0.1295,-0.6245 -0.1376,-0.1374 -0.1376,-0.4673 -0.2003,-0.6323 -0.2357,-0.3025 -0.1964,-0.8327 -0.5617,-0.9976 v 0.6676" /><path
           id="path967"
           style="fill:#deddde;fill-opacity:1;fill-rule:nonzero;stroke:none"
           d="m 506.4771,476.6351 c -0.1649,0.4321 -0.4006,0.8327 -0.4006,1.2921 -0.3298,1.1272 -0.4634,2.3919 -1.1272,3.2875 -0.0667,0.267 -0.3652,0.4594 -0.3652,0.762 0.4988,-0.0354 0.4988,-0.5303 0.8641,-0.7306 0.7619,-1.0919 0.864,-2.3919 1.0918,-3.8137 -0.0629,-0.3298 0.2985,-0.4321 0.2357,-0.7973 h -0.2986" /><path
           id="path969"
           style="fill:#deddde;fill-opacity:1;fill-rule:nonzero;stroke:none"
           d="m 522.0226,475.7043 c 0.2003,0.0354 0.0354,0.3064 0.1334,0.436 0.1376,0.6951 0.169,1.5592 0.169,2.3565 0.1689,0.0629 0,0.3574 0.1336,0.5302 0.0667,0.2278 0.2316,0.3929 0.2316,0.7266 0.2947,0.4006 0.495,0.8956 0.9269,1.1626 0.0982,-0.3024 -0.267,-0.3339 -0.1336,-0.6322 -0.2278,-0.3968 -0.3652,-0.8641 -0.4281,-1.4298 h -0.0313 c -0.169,-1.3864 0,-2.8121 -0.8954,-3.7116 l -0.0394,-0.004 c -0.157,0 -0.1257,0.4123 -0.0667,0.5655" /><path
           id="path971"
           style="fill:#deddde;fill-opacity:1;fill-rule:nonzero;stroke:none"
           d="m 529.6539,479.2863 v 0.0354 l -0.9624,0.0982 c 0,0.3024 0.2947,0.3337 0.5658,0.3691 0.0941,0.0275 0.2591,-0.0354 0.3652,0.0628 0.4594,0.1021 1.1232,0 1.6182,0.1021 0.0354,-0.5615 -0.6246,-0.4673 -0.9623,-0.6676 h -0.6245" /><path
           id="path973"
           style="fill:#deddde;fill-opacity:1;fill-rule:nonzero;stroke:none"
           d="m 508.9947,474.9423 c -0.1021,0.2357 -0.1021,0.5027 -0.2631,0.6678 -0.1375,0.6323 -0.3299,1.2568 -0.3024,1.9519 -0.1336,0.5971 -0.1611,1.198 -0.3927,1.7243 v 0.4673 c 0.7933,-1.029 0.7933,-2.5881 1.0211,-4.0139 -0.0982,-0.2947 0.2985,-0.3968 0.1728,-0.7974 h -0.2357" /><path
           id="path975"
           style="fill:#deddde;fill-opacity:1;fill-rule:nonzero;stroke:none"
           d="m 499.4114,478.6892 c -0.3772,0 -0.7503,0.0196 -1.029,0.165 -0.2985,-0.0942 -0.326,0.2318 -0.5971,0.1728 -0.3298,0.059 -0.4634,0.3929 -0.7579,0.495 0.4281,0.3652 0.6284,-0.3653 1.2214,-0.2003 0.4635,-0.0669 0.7974,-0.2947 1.3629,-0.2673 0.0354,-0.1649 0.2278,-0.1649 0.1649,-0.3652 -0.1178,0 -0.2435,0 -0.3652,0" /><path
           id="path977"
           style="fill:#deddde;fill-opacity:1;fill-rule:nonzero;stroke:none"
           d="m 519.4734,473.6186 c 0.2632,0.1023 0.0354,0.4989 0.2006,0.6992 0.1649,0.0353 0,0.2631 0.1295,0.3654 0.0982,0.2316 0.1649,0.5969 0.1296,0.9269 h 0.0353 c 0.0708,1.4217 0,2.9496 0.7974,3.9119 h 0.2003 c 0.1295,-0.495 -0.2357,-0.6678 -0.1377,-1.1272 -0.1924,-0.165 -0.098,-0.601 -0.1924,-0.8328 -0.2003,-1.0211 -0.1374,-2.384 -0.4319,-3.3463 -0.2003,-0.3652 -0.271,-0.8954 -0.6953,-1.0603 -0.0667,0.098 0,0.2983 -0.0354,0.4632" /><path
           id="path979"
           style="fill:#deddde;fill-opacity:1;fill-rule:nonzero;stroke:none"
           d="m 527.0029,477.8644 c 1.0564,0.2278 2.4193,0.0628 3.5465,0.1297 l 0.0667,0.0981 0.2278,-0.0981 c -0.762,-1.1272 -2.6197,-0.2003 -3.7823,-0.6245 l -0.6558,-0.0354 c -0.0392,0.3339 0.4281,0.3339 0.5971,0.5302" /><path
           id="path981"
           style="fill:#deddde;fill-opacity:1;fill-rule:nonzero;stroke:none"
           d="m 498.4845,476.5056 c 0.0353,0.1964 0.2632,0.161 0.4635,0.161 v -0.0315 c 1.2567,-0.3653 1.9912,0.4675 3.2167,0.2003 l 0.1021,-0.1688 c -0.0354,-0.2947 -0.4635,-0.161 -0.6992,-0.2593 -0.3968,-0.1687 -0.9857,-0.2789 -1.567,-0.2789 -0.5813,0 -1.1547,0.1102 -1.5161,0.3772" /><path
           id="path983"
           style="fill:#deddde;fill-opacity:1;fill-rule:nonzero;stroke:none"
           d="m 524.3124,474.8128 c 0,0.5301 0.6676,0.4673 0.9662,0.6597 0.6283,0.2318 1.5553,0.1376 2.1837,0.1023 v -0.067 c 0.5616,-0.2002 1.3236,0.067 1.8263,-0.2277 -0.3968,-0.5694 -1.3313,-0.432 -2.0542,-0.4673 -0.7345,0.3023 -2.0266,0.0707 -2.922,0" /><path
           id="path985"
           style="fill:#deddde;fill-opacity:1;fill-rule:nonzero;stroke:none"
           d="m 501.3319,474.1175 c 0.1336,0.3654 0.5343,0 0.8682,0.2003 0.9582,0.0628 1.622,0.597 2.5489,0.597 0.2357,-0.0667 0.2003,0.2003 0.4359,0.0983 -0.0353,-0.0708 0.0629,-0.1296 0.1258,-0.0983 h 0.1375 c -0.0354,-0.3023 -0.436,-0.2316 -0.6992,-0.3339 -0.7541,-0.2433 -1.5828,-0.648 -2.4547,-0.648 -0.3143,0 -0.6363,0.0512 -0.9624,0.1846" /><path
           id="path987"
           style="fill:#deddde;fill-opacity:1;fill-rule:nonzero;stroke:none"
           d="m 504.8197,472.358 c 1.4925,-0.0669 2.3212,1.4296 3.8452,0.6951 -0.169,-0.3652 -0.8995,-0.0942 -1.2962,-0.2278 -0.758,-0.3652 -1.5867,-0.6322 -2.549,-0.6676 v 0.2003" /><path
           id="path989"
           style="fill:#deddde;fill-opacity:1;fill-rule:nonzero;stroke:none"
           d="m 524.5127,472.0282 c -0.1649,0.1295 -0.5262,0.1295 -0.6953,0.2003 -0.8325,0.1649 -1.5591,0.0352 -2.3565,-0.0708 -0.0982,0.0708 -0.2277,0.2711 -0.0354,0.3337 0.7032,0.1965 1.3276,0.4322 2.1916,0.3339 l 0.0354,0.0983 c 1.0959,-0.2357 2.1523,-0.5656 3.4445,-0.4322 0.0708,-0.2277 -0.0941,-0.3652 -0.3298,-0.3652 -0.3182,-0.1138 -0.7109,-0.1492 -1.1117,-0.1492 -0.3965,0 -0.7972,0.0354 -1.1428,0.0512" /><path
           id="path991"
           style="fill:#deddde;fill-opacity:1;fill-rule:nonzero;stroke:none"
           d="m 510.6837,430.7843 v 0.0591 l -1.689,0.0705 v 0.0628 c -1.2293,0.0354 -2.4193,0.2672 -3.6173,0.3653 -0.0942,0.2002 -0.3927,0.0315 -0.5577,0.1376 -1.5632,0.1963 -2.7886,0.7305 -4.2811,0.9896 -0.864,0.169 -1.6535,0.5696 -2.5176,0.7345 -0.6284,0.2947 -1.2921,0.3927 -1.9559,0.6245 -0.5342,0.3024 -1.1979,0.4673 -1.7281,0.762 -1.6536,0.5302 -3.0793,1.363 -4.6425,2.0227 -2.1838,1.3275 -4.4107,2.655 -6.559,3.9787 -3.582,2.5255 -7.1327,5.1098 -9.7523,8.621 -0.1021,0.3024 -0.4635,0.5302 -0.6992,0.6678 -0.0942,0.4948 -0.4947,0.8247 -0.7225,1.1899 -0.0354,0.0669 0.0275,0.1649 -0.0708,0.2003 h -0.0628 c 0,0.2672 -0.3024,0.3968 -0.3024,0.5932 -0.3339,0.1335 -0.3339,0.5341 -0.5617,0.7659 -0.1649,0.6951 -0.7933,1.0603 -0.8641,1.7948 -0.2278,0 0,0.2947 -0.2003,0.2947 -0.2985,0.5302 -0.4281,1.1626 -0.7619,1.6574 0.0982,0.3298 -0.2632,0.3652 -0.1296,0.6951 -0.2357,0.3379 -0.1336,0.9348 -0.0983,1.359 1.4533,1.7635 3.5153,3.0872 4.8428,4.9449 0.5931,1.4571 0.0275,3.1145 -0.9622,4.0139 -0.6363,0.7895 -1.465,1.1862 -2.2899,1.7871 -1.5907,0.8601 -2.8828,2.3565 -4.01,3.849 0.0628,0.2947 -0.2986,0.2947 -0.3652,0.5304 -0.169,0.6913 -0.5971,1.1898 -0.4989,2.0541 h -0.0707 c 0.1061,1.355 1.2608,1.9244 1.6968,3.0791 0.4909,0.6325 0.9936,1.3276 1.2568,2.1957 0.4005,0.0941 0.0982,0.6559 0.4988,0.7892 0.2278,0.8995 0.6637,1.7243 0.8915,2.6553 v 0.2316 c 0.2003,0.0667 0.0354,0.3968 0.1375,0.5617 0.4634,2.1601 1.9912,3.8177 3.9434,4.7446 0.864,0.1649 1.457,0.9896 2.49,0.86 l 0.1296,-0.1649 c -0.0354,-0.7659 0.0629,-1.4925 0.1021,-2.1524 0.1336,-2.2896 0.5617,-4.446 1.1547,-6.4687 0,-0.4321 0.1728,-0.6324 0.2356,-1.0251 0.6638,-1.6614 1.0919,-3.5466 1.956,-5.1765 1.6614,-1.0919 3.5781,-2.0188 5.0706,-3.3463 0.5342,-0.8327 1.4257,-1.5279 1.8617,-2.557 0.3652,-0.6244 0.2591,-1.6259 0.2278,-2.4469 -0.326,-0.5381 -0.6246,-1.2647 -1.2608,-1.5591 -0.8287,-0.6364 -1.5553,-1.4296 -1.9559,-2.4548 -0.1924,-0.0982 -0.1337,-0.2672 -0.2632,-0.4675 -0.0629,-0.593 -0.4988,-1.1624 0,-1.622 3.8451,-4.1791 8.2204,-7.8552 13.4992,-10.3807 0.4281,-0.0629 0.491,-0.4948 1.0211,-0.4281 1.0644,-0.6676 2.2898,-1.0997 3.5545,-1.4963 1.7831,-0.5932 3.7077,-1.0605 5.6008,-1.4927 1.7243,-0.1295 3.3109,-0.4947 5.1726,-0.3652 v -0.0275 c 0.4635,-0.2003 0.6638,0.165 1.1272,0.0275 -0.0353,-0.1295 0.0982,-0.0942 0.2003,-0.0942 0.2004,0.2945 0.4281,-0.2003 0.6285,0.0942 1.19,-0.0942 2.1561,0.2003 3.2167,0.2672 l 0.0353,-0.0669 c 2.4194,0.3968 4.7092,0.9977 6.8929,1.6576 0.8601,0.4319 1.8892,0.6322 2.7218,1.127 0.9623,0.338 1.8579,0.8289 2.7848,1.2962 0.2278,0.2319 0.6244,0.2986 0.9308,0.4596 1.948,1.3275 4.0375,2.494 5.8677,3.9826 1.7202,1.2922 3.2168,2.7217 4.7367,4.2142 0.3967,0.3928 0.6992,0.7895 1.1588,1.2255 0.1687,0.4948 0.8954,0.8287 0.5655,1.622 -0.1296,0.3967 -0.267,0.8641 -0.5655,1.1587 0.0353,0.2711 -0.1258,0.3653 -0.2594,0.5027 -0.2002,0.495 -0.6675,0.8602 -0.9347,1.2255 -1.0919,0.762 -2.282,1.7594 -1.8223,3.5428 0.1649,0.0392 0.0353,0.3061 0.1373,0.4005 0.9899,2.9221 3.7116,4.3792 6.2017,5.8365 0.8248,0.3298 1.0919,1.0918 1.4219,1.8576 0.4635,0.927 0.7658,2.0188 1.025,3.0873 0.3026,0.1649 0.2318,0.695 0.4321,0.962 -0.0669,0.2593 0.165,0.3614 0.1375,0.66 0.2003,0 0.0275,0.2316 0.1335,0.2945 0.2945,1.5947 0.6913,3.1892 0.927,4.8153 h 0.0628 l 0.1021,1.2882 h 0.0354 c 0.1962,0.8601 -0.2003,2.0227 0.3299,2.6551 l 0.3967,-0.0353 c 0.2316,-0.0354 0.3652,-0.2672 0.6597,-0.2672 1.7597,-0.758 3.6136,-1.6928 4.615,-3.4169 0.1649,-0.6599 0.5617,-1.0605 0.5969,-1.7518 0.1298,-0.2356 0.1298,-0.6009 0.1965,-0.8956 0.593,-2.8159 2.117,-5.2393 3.8097,-7.3956 0.2357,-0.6324 0.3299,-1.2567 0.2711,-2.0579 -0.169,0 0,-0.2594 -0.1336,-0.326 -0.3691,-0.931 -0.8679,-1.8305 -1.5945,-2.5256 -0.825,-1.0918 -1.9246,-2.219 -3.2522,-2.8161 -1.2921,-0.86 -2.5843,-1.7869 -3.1106,-3.417 -0.1061,-0.0629 -0.1649,-0.2278 -0.1336,-0.3928 h -0.0313 c -0.7307,-2.4901 1.7515,-3.2872 2.7138,-4.7091 0.6325,-0.6992 1.3945,-1.2293 2.0542,-1.9244 -0.0275,-0.1652 0.0669,-0.2357 0.1022,-0.3655 0.0352,-0.3299 0.1296,-0.8915 -0.1022,-1.1585 0.0353,-0.2357 -0.2278,-0.436 -0.1296,-0.7305 -0.1649,-0.2357 -0.2632,-0.3968 -0.2632,-0.6953 -0.102,0 -0.2002,-0.1021 -0.1689,-0.2003 0.1023,-0.267 -0.1688,-0.3967 -0.263,-0.5617 -0.1651,-0.4319 -0.4675,-0.8679 -0.5617,-1.3588 -0.6362,-0.7032 -0.8955,-1.6615 -1.4924,-2.3606 -1.5632,-2.1523 -3.1501,-4.1121 -5.0746,-5.7656 -1.2647,-1.363 -2.8201,-2.553 -4.3085,-3.5859 -0.766,-0.6286 -1.5631,-1.088 -2.3605,-1.7243 -1.0918,-0.6245 -2.0188,-1.4886 -3.2167,-2.0188 -0.2279,-0.2672 -0.6952,-0.3652 -0.9544,-0.6324 -0.7974,-0.2945 -1.3001,-0.8954 -2.1563,-1.1272 -0.4988,-0.3652 -1.0014,-0.7304 -1.6574,-0.8247 -0.8681,-0.6362 -1.9246,-0.9622 -2.8907,-1.3982 -1.1941,-0.5617 -2.4548,-1.0211 -3.8138,-1.3591 -0.2591,-0.3299 -0.762,-0.1924 -1.0918,-0.4241 -0.4007,-0.1335 -0.8249,-0.271 -1.2255,-0.4006 -0.4989,-0.0353 -0.8916,-0.33 -1.4571,-0.3025 -1.1626,-0.4241 -2.6863,-0.6244 -3.8136,-0.86 -2.7533,-0.3653 -5.648,-0.6559 -8.6447,-0.6559 -0.542,0 -1.088,0.008 -1.6377,0.0313 m 3.4837,1.2568 c 0.864,0.1298 1.8264,0.169 2.7846,0.1298 0.2318,-0.1298 0.3024,0.2983 0.4321,0 1.9519,0.3652 4.0768,0.4005 5.8716,1.0328 1.8892,0.2947 3.4761,1.0605 5.3338,1.4573 1.2921,0.5302 2.5568,1.0249 3.8138,1.622 0.1295,0 0.2983,-0.0353 0.3299,0.1336 0.8325,0.3024 1.5944,0.6638 2.3251,1.1311 l 0.3966,0.0275 c 1.2254,0.7304 2.4822,1.4295 3.7469,2.1602 0.2947,0.3299 0.7307,0.491 1.1272,0.6243 0.7973,0.6325 1.7871,1.2334 2.6551,1.7951 4.3086,2.9457 7.7846,6.1663 10.8403,10.3766 0.86,1.1902 1.5945,2.4548 2.0895,3.7823 0.3653,0.6246 0.6244,1.3197 0.8246,2.0228 h -0.0274 c -0.1059,0.0627 -0.0354,0.165 -0.0354,0.2316 -0.3965,0.3928 -0.9269,0.9232 -1.3235,1.3276 l -0.169,0.0275 c -1.0289,1.0643 -2.1562,2.0228 -2.9535,3.0872 -0.8601,0.695 -1.461,1.724 -2.1876,2.4547 -0.3968,0.5969 -0.8248,1.2214 -1.3275,1.7595 -0.1611,0.1924 -0.2318,0.4596 -0.5263,0.4242 -0.165,-0.1649 -0.2711,-0.2946 -0.2711,-0.5617 -0.3614,-0.5301 -0.9898,-1.8931 -0.9898,-2.058 -0.3965,-0.6912 -0.864,-1.3865 -1.2959,-2.121 0.0313,-0.1649 -0.3301,-0.1334 -0.2278,-0.3337 -3.6527,-4.9057 -8.5269,-8.7155 -13.8294,-11.7632 -0.2002,-0.1336 -0.3336,-0.3652 -0.6596,-0.3339 -4.1829,-2.4547 -8.9865,-4.0493 -14.3279,-4.6464 -1.2568,-0.0628 -2.3212,-0.2591 -3.6487,-0.2003 -0.2632,-0.0942 -0.326,0.2357 -0.5264,0.0354 -0.699,0.1374 -1.5631,-0.0354 -2.3526,0.1649 v 0.0354 c -2.5568,0.2004 -4.9762,0.6599 -7.1993,1.3943 -1.3276,0.2946 -2.384,0.8602 -3.6487,1.3275 -0.6638,0.3929 -1.5553,0.6245 -2.2191,1.0605 -1.2254,0.5617 -2.388,1.2568 -3.6448,1.8892 -2.2898,1.7241 -4.9095,3.3463 -6.9637,5.3689 h -0.1374 c -1.3904,1.2647 -2.6472,2.5571 -3.7744,4.1437 -1.4611,1.6574 -2.5529,3.6174 -3.3542,5.801 -0.1924,0.1062 -0.1336,0.4007 -0.428,0.3732 -0.6325,-0.6323 -1.096,-1.465 -1.7597,-2.1249 -0.3653,-0.7971 -0.9936,-1.1978 -1.52,-1.8223 -0.7345,-0.8641 -1.3,-1.5592 -2.1562,-2.3565 -0.3339,-0.4006 -0.6638,-0.7974 -1.1272,-1.0919 -0.5655,-0.7307 -1.4611,-1.1626 -1.9913,-1.96 -0.0628,-0.695 0.3299,-1.0603 0.4988,-1.5553 0.4594,-1.0643 0.8287,-2.1915 1.5867,-3.0518 0.5342,-1.2293 1.5318,-2.1916 2.1877,-3.2873 3.0832,-3.8138 7.5646,-7.1285 11.8378,-9.7482 0.6363,-0.2907 0.9623,-0.762 1.6574,-0.9585 1.033,-0.6597 2.1877,-1.1272 3.1185,-1.8223 0.3339,0.1296 0.3693,-0.2357 0.6678,-0.2003 0.1296,-0.1649 0.3652,-0.1649 0.4948,-0.3614 2.1524,-0.8954 4.3086,-1.7635 6.5002,-2.5255 1.6535,-0.4281 3.1814,-0.9623 4.8741,-1.3196 0.1611,-0.1375 0.4635,0.0274 0.5617,-0.1729 0.6991,0 1.1901,-0.1649 1.8264,-0.2591 0.1295,-0.1376 0.4635,0.0314 0.5301,-0.1376 0.927,0.0669 1.5907,-0.2983 2.5176,-0.2278 v -0.0705 c 0.9427,-0.0511 1.9363,-0.0275 2.9104,-0.0275 0.7775,0 1.5436,-0.0158 2.2623,-0.1023 m -34.3194,37.1002 c 0,-0.2003 0.0354,-0.4322 0.169,-0.5656 -0.0354,-0.4242 0.1295,-0.7266 0.267,-1.0564 0.1257,-0.3968 0.2278,-0.8328 0.4243,-1.2295 0.5301,-0.9896 1.0289,-2.0894 1.7634,-2.9142 0.3299,0.3298 0.3652,0.7974 0.6638,1.1272 0.2278,0.3653 0.3927,0.762 0.7225,1.0919 0.2044,0.102 0.0354,0.4006 0.2986,0.4319 v 0.2003 c -0.9269,0.495 -1.5907,1.2216 -2.2545,1.9836 -0.5421,0.4202 -0.6833,1.3981 -1.5356,1.3981 h -0.0825 c -0.2004,-0.165 -0.267,-0.2708 -0.436,-0.4673 m 66.1525,0.6676 c -0.7971,-1.1978 -1.7948,-2.5253 -3.1223,-3.1852 0.1687,-0.7267 0.9308,-1.0919 1.1272,-1.8539 0.271,-0.267 0.2357,-0.7698 0.5655,-0.8994 1.2647,1.3236 1.7243,3.0872 2.4194,4.8112 0.0707,0.1965 0.0353,0.495 0.165,0.6562 v 0.2395 c -0.0393,0.2944 -0.3536,0.4634 -0.656,0.4634 -0.2002,0 -0.3967,-0.0746 -0.4988,-0.2318 m -75.999,10.8757 c -0.1296,-0.2003 -0.2945,-0.436 -0.4281,-0.6678 -0.6638,-1.3276 -1.3942,-2.6472 -2.3211,-3.8098 -0.1336,-0.0667 0.0275,-0.3024 -0.1336,-0.3024 -0.2357,-0.7895 0.1336,-1.4571 0.3613,-2.0541 0.0354,0 0.1021,0 0.1375,-0.0629 0.4635,-0.8994 1.1547,-1.6968 1.9559,-2.2545 1.355,-1.4649 3.5466,-2.0266 4.5718,-3.7822 v -0.1965 c 0.1649,-0.2002 0.3298,-0.4319 0.4006,-0.703 0.1649,-0.1962 0.2985,-0.3967 0.2985,-0.695 0.1295,-0.2947 0.2632,-0.5617 0.3927,-0.8916 1.3275,1.2922 2.3919,2.8867 3.3188,4.4735 0.1337,0.2003 0.0708,0.3652 0.2632,0.4673 0.1061,0.5656 0.5656,0.7934 0.9623,1.096 0.8641,0.0942 1.4571,-0.1377 1.9913,-0.7033 0.5655,-1.2213 1.5907,-1.9518 2.4547,-2.9141 0.2986,0 0.4006,-0.1649 0.5655,-0.2672 0.491,-0.1924 0.8249,0.1374 1.1548,0.2672 0.2357,0.9974 -0.3653,1.5945 -0.5577,2.384 -1.5319,2.0226 -3.8176,3.3227 -6.1349,4.4774 v 0.0353 c -0.9623,0.3614 -1.8264,0.8641 -2.7533,1.2609 -1.7557,0.9307 -3.5192,2.1523 -4.611,3.8098 -0.5655,0.6324 -0.9269,1.3982 -1.4924,1.9599 -0.0629,-0.3301 -0.3968,-0.5617 -0.3968,-0.9269 m 77.2912,-8.9865 c 1.0251,-0.3652 1.0958,-1.5946 1.7202,-2.2857 0.0354,-0.2004 0.1377,-0.334 0.3026,-0.4007 0.5969,-1.2608 1.3588,-2.1877 2.219,-3.1813 0.3653,0 0.2358,0.3965 0.4673,0.5617 0.1925,0.8325 0.6953,1.5591 1.1273,2.2544 1.6576,2.0188 4.1437,2.6864 5.7344,4.7718 v 0.1377 c 0.4948,0.4594 0.762,1.1547 0.9623,1.7869 0.1295,0.1649 -0.0354,0.4675 0.1295,0.5617 0,0.8328 -0.4595,1.3275 -0.8249,1.9598 -0.8325,0.9623 -1.3588,2.2898 -2.0541,3.3817 -0.1375,0.2003 -0.1375,0.597 -0.3378,0.7306 -0.3652,0.0354 -0.3927,-0.3652 -0.6242,-0.5303 v -0.165 c -0.8682,-1.3942 -2.125,-2.651 -3.4878,-3.7194 -0.3968,-0.3299 -0.8562,-0.4948 -1.1902,-0.8954 -1.1939,-0.6913 -2.6512,-1.1941 -3.8489,-1.8892 -0.3614,0.0354 -0.4597,-0.2593 -0.762,-0.2945 -2.2899,-1.1626 -4.6385,-2.6512 -5.5654,-5.1451 -0.1337,-0.0591 0.0313,-0.3261 -0.1337,-0.3261 -0.102,-0.3301 -0.0666,-0.762 0.0983,-0.9976 0.2003,-0.0629 0.2945,-0.2319 0.5971,-0.2319 1.8576,0.5342 2.5843,2.1918 3.8098,3.5194 0.2983,0.2944 0.7304,0.4436 1.1898,0.4436 0.1532,0 0.3105,-0.0156 0.4714,-0.0471 m -75.2017,9.9134 c 0.1296,-0.1651 0.2985,-0.2672 0.2632,-0.495 1.1272,-1.6653 2.82,-3.087 4.6109,-4.0493 0.3614,-0.2318 0.8249,-0.4006 1.1626,-0.4006 -0.2985,0.9308 -0.4988,1.9638 -0.864,2.82 -0.4281,0.9269 -0.4989,1.9598 -0.8641,2.922 -0.4634,1.3866 -0.5263,2.9852 -0.8248,4.4736 -0.2003,0.3693 0.0275,0.9309 -0.165,1.257 -0.0353,0.3336 -0.102,0.6989 -0.5655,0.5655 -1.6614,-0.5655 -3.2521,-1.8225 -3.5191,-3.7469 h -0.0275 c -0.2986,-1.359 0.2632,-2.4155 0.7933,-3.3463 m 79.1763,3.7469 c -0.1333,-0.1649 0.0354,-0.495 -0.1333,-0.5617 l -0.165,-0.9307 c -0.0944,-0.1377 0.0706,-0.3968 -0.1297,-0.4322 -0.267,-1.3904 -0.7264,-2.6197 -1.1232,-3.9118 -0.1061,-0.0708 0.0588,-0.3299 -0.1336,-0.3299 -0.0354,-0.5029 -0.2317,-0.8681 -0.3652,-1.2924 -0.1021,-0.1059 0.0275,-0.3652 -0.1375,-0.3652 l -0.0669,-0.3965 h 0.169 c 2.1208,0.7264 3.8097,2.3132 5.208,3.9785 0.3968,0.6599 0.9269,1.2921 1.1273,2.0816 0.7266,0.8994 0.3613,2.5922 -0.0708,3.4878 -0.5301,0.9623 -1.3275,1.5592 -2.1837,2.0896 -0.2985,0 -0.4006,0.2315 -0.6362,0.2944 -0.7896,0.3299 -0.927,-0.3652 -0.8916,-0.9307 h -0.0708 c 0.0354,-1.0567 -0.1649,-1.9562 -0.3968,-2.7808" /><path
           id="path993"
           style="fill:#deddde;fill-opacity:1;fill-rule:nonzero;stroke:none"
           d="m 473.2536,457.3035 c 0.6913,0.3968 1.1272,0.9976 1.7202,1.465 0.8995,0.6599 1.8893,1.4571 2.6905,2.1877 -0.0708,0.5969 -0.4988,1.0212 -0.8287,1.3864 -0.1336,0.1649 -0.2711,0.4321 -0.1336,0.6678 0.2985,0.1649 0.4635,0.5968 0.8915,0.5655 l 0.5971,-0.7304 c 0.7345,-0.6954 1.194,-1.7244 1.9559,-2.3568 0.2003,-0.593 0.7345,-0.7658 1.029,-1.296 0.169,-0.3967 -0.0667,-0.6912 -0.3299,-0.7935 -0.6991,-0.6989 -0.762,0.3968 -1.2254,0.5617 -0.2003,0.1728 -0.3024,0.6324 -0.7304,0.6324 -0.927,-0.3298 -1.4612,-1.1272 -2.2899,-1.6535 -0.8641,-0.7305 -1.6535,-1.3983 -2.655,-1.9638 -0.2278,0.4713 -0.9624,0.5655 -0.6913,1.3275" /><path
           id="path995"
           style="fill:#deddde;fill-opacity:1;fill-rule:nonzero;stroke:none"
           d="m 548.0547,456.7733 c -0.267,0.4673 -0.5931,0.8601 -0.8287,1.3276 -0.165,0.7971 -1.5279,1.622 -0.4322,2.4194 0.2318,0.1649 0.2672,0.4359 0.5617,0.5301 1.1273,-0.2003 1.96,-0.7305 3.0164,-0.9898 0.2004,-0.2316 0.7031,-0.102 0.9308,-0.267 0.2318,-0.2356 0.6991,-0.1649 0.927,-0.3652 0.2002,-0.0354 0.3968,-0.1649 0.6324,-0.1649 0,-0.1965 0.2945,0.0351 0.2945,-0.1652 0.5971,-0.2316 1.4924,-0.2003 1.4924,-0.9974 -0.1649,-0.3301 -0.4594,-0.5263 -0.7266,-0.829 h -0.4632 c 0,0.1965 -0.2672,0.0316 -0.3301,0.1377 -0.3652,0.165 -0.6992,0.2907 -1.0328,0 -0.5264,-0.7032 -0.9939,-1.033 -1.3866,-1.8304 -0.0354,-0.593 0.7895,-0.8954 0.593,-1.6574 -0.3337,-0.2631 -0.4634,-0.7973 -0.9308,-0.8248 -0.9543,1.0959 -1.4216,2.5176 -2.3172,3.6763 m 0.2631,2.2229 c 0.4673,-0.7658 0.9977,-1.2959 1.4571,-1.9872 0.4321,0.2003 0.7032,0.6244 0.9623,1.0565 -0.1295,0.5301 -0.8954,0.5026 -1.3196,0.7305 v 0.0707 c -0.4319,0.0313 -0.6676,0.326 -1.0998,0.326 v -0.1965" /><path
           id="path997"
           style="fill:#deddde;fill-opacity:1;fill-rule:nonzero;stroke:none"
           d="m 480.9477,447.7909 c -1.1939,1.2922 -2.3211,2.2545 -3.4562,3.582 -0.0983,0.3965 0.1374,0.5301 0.3377,0.7305 1.3275,1.7555 3.4092,2.8828 4.8703,4.6699 0.6009,0.0706 0.7658,-0.3967 1.0644,-0.6912 0.6284,-0.5971 1.4257,-1.3275 1.9559,-1.9599 0.3614,-0.4635 0.9898,-0.66 0.9269,-1.3551 -0.3652,-0.1728 -0.4006,-0.8287 -1.029,-0.5342 -0.6637,1.029 -1.5907,1.5947 -2.4155,2.384 -0.6638,-0.098 -1.0015,-0.4947 -1.1665,-1.1272 0.6992,-0.7893 1.4925,-1.2568 2.0267,-2.1876 0.1296,-0.5617 -0.3968,-0.6245 -0.6324,-0.9269 -0.4006,0.0708 -0.6284,0.4673 -0.8641,0.6951 l -1.355,1.3945 c -0.6009,0.1649 -0.9661,-0.2673 -1.2647,-0.6325 -0.1649,-0.1295 -0.326,-0.2945 -0.3652,-0.5617 0.7305,-1.1272 1.893,-1.8577 2.6197,-2.9495 -0.0275,-0.3652 -0.3653,-0.6009 -0.5617,-0.8328 -0.0588,-0.0155 -0.114,-0.0234 -0.1611,-0.0234 -0.2474,0 -0.3691,0.1845 -0.5302,0.326" /><path
           id="path999"
           style="fill:#deddde;fill-opacity:1;fill-rule:nonzero;stroke:none"
           d="m 547.823,450.446 c -1.6576,1.6887 -3.417,3.3109 -4.9448,5.0704 -0.2319,0.6283 0.3652,0.6283 0.5655,1.0251 0.1649,0.1021 0.5027,0.1649 0.6676,0 0.495,-0.5655 1.1547,-1.1901 1.7243,-1.7243 0.9898,-1.0249 2.117,-2.2544 3.1501,-3.3501 v -0.1965 c -0.3026,0 0.0272,-0.4281 -0.338,-0.3337 -0.0275,-0.2947 -0.3299,-0.3614 -0.5615,-0.4909 h -0.2632" /><path
           id="path1001"
           style="fill:#deddde;fill-opacity:1;fill-rule:nonzero;stroke:none"
           d="m 542.8782,446.2277 c -2.0896,1.2331 -4.1753,2.4232 -6.2607,3.6527 -0.0354,0.5969 0.495,0.8954 0.9269,1.1624 0.6991,-0.2316 1.355,-0.7029 1.9875,-1.1272 0.8599,-0.4673 1.5944,-1.0997 2.5214,-1.5278 h 0.2632 c 0.1021,0.2947 -0.0629,0.6284 -0.1296,0.8956 -0.2672,0.0353 0,0.4319 -0.2672,0.4594 -0.0628,0.3652 -0.2356,0.7345 -0.4281,1.0684 -0.1374,0.424 -0.267,0.8916 -0.4319,1.3588 -0.1337,0.2948 -0.2711,0.6246 -0.4006,0.927 -0.0354,0.0629 0.0354,0.2002 -0.0669,0.2593 -0.165,0.2003 0.1649,0.3024 0.1023,0.5342 0.3652,0.1334 0.5968,0.6989 1.1624,0.4986 0.2947,-0.7618 0.5617,-1.5237 0.8564,-2.2857 0.2983,-0.7659 0.4359,-1.6261 0.7304,-2.3606 0.1649,-0.3927 0.2356,-0.86 0.4673,-1.2214 0.2003,-0.4988 0.4281,-1.0331 0.3301,-1.6574 -0.3615,-0.1649 -0.66,-0.6678 -1.0644,-0.762 0,0.1965 -0.2278,0.0313 -0.2985,0.1257" /><path
           id="path1003"
           style="fill:#deddde;fill-opacity:1;fill-rule:nonzero;stroke:none"
           d="m 488.9365,442.1548 c -0.0353,1.9519 0.0629,3.9119 -0.0353,5.8678 -1.0919,-1.194 -1.9206,-2.651 -2.9536,-3.9159 -0.3653,-0.2984 -0.7267,0.2672 -1.0565,0.3967 -0.3652,0.3378 0.0942,0.6325 0.1296,0.9308 0.0982,0.169 0.3692,0.169 0.2985,0.4321 0.6991,1.0644 1.4611,1.8539 2.1208,2.9496 0.5696,0.6677 0.9348,1.3944 1.4965,2.0895 0.6913,0.102 0.9583,-0.5302 1.355,-0.86 v -5.2042 c 0.0354,-0.1021 0.2004,-0.1021 0.2711,-0.0314 0.7933,1.1861 1.4217,2.4194 2.1483,3.6134 0.5381,0.2593 1.0015,-0.4006 1.3629,-0.6323 -0.5971,-1.3275 -1.4611,-2.4193 -2.1249,-3.7469 -0.5301,-0.8956 -0.9269,-1.9246 -1.6574,-2.7219 -0.597,0.0707 -1.1272,0.3377 -1.355,0.8327" /><path
           id="path1005"
           style="fill:#deddde;fill-opacity:1;fill-rule:nonzero;stroke:none"
           d="m 495.9277,438.5728 c -0.3968,0.267 -0.0983,0.5656 -0.0629,0.927 0.3652,1.0918 0.9269,2.0226 1.2293,3.2205 h 0.0275 c 0.0707,0.6913 0.5971,1.088 0.5971,1.8539 -0.3615,0.7974 -2.2153,0.3298 -1.7518,1.7243 0.0628,0.2944 0.3613,0.4947 0.762,0.4006 0.2631,-0.2357 0.6283,-0.4006 0.9898,-0.4714 0.6362,-0.1964 1.0997,-0.4909 1.7281,-0.6245 0.7266,-0.432 1.6574,-0.6676 2.384,-1.0998 0.0354,-0.3967 -0.0942,-0.8562 -0.4281,-1.0565 h -0.2357 c -0.1296,0.1296 -0.4634,0.1296 -0.6284,0.2003 -0.3652,0.0668 -0.5263,0.2317 -0.8915,0.2317 0.0275,0.0628 -0.0708,0.0944 -0.1375,0.0944 -0.2277,-0.0944 -0.3614,-0.3261 -0.4321,-0.5617 -0.1295,-0.3968 -0.2591,-0.8249 -0.3927,-1.2214 h -0.0667 c -0.4989,-0.9977 -0.7345,-2.1957 -1.198,-3.2168 -0.2278,-0.1336 -0.1924,-0.3023 -0.2985,-0.5655 -0.11,-0.1336 -0.2278,-0.1807 -0.3535,-0.1807 -0.2828,0 -0.5852,0.2553 -0.8404,0.3456" /><path
           id="path1007"
           style="fill:#deddde;fill-opacity:1;fill-rule:nonzero;stroke:none"
           d="m 529.8188,438.5728 c 0.0353,0.3299 -0.3024,0.5656 -0.1021,0.8325 -0.0628,0.4243 -0.0942,1.0213 -0.1295,1.52 -0.0354,1.4298 -0.3299,2.7219 -0.2986,4.2106 -0.169,0.2983 -0.1021,0.8954 -0.0313,1.2921 0.3966,0.3652 0.8562,0.6009 1.4884,0.6951 0.3693,-0.3299 0.7306,-0.6597 1.0959,-0.9623 1.1939,-1.2252 2.5214,-2.4782 3.7822,-3.6408 0.2592,-0.3298 0.6244,-0.5655 0.656,-1.033 -0.3652,-0.2945 -0.7896,-0.5617 -1.3237,-0.5617 -0.2945,0.3339 -0.6951,0.6992 -1.0603,0.9269 -0.927,-0.3298 -1.8893,-0.7893 -2.6867,-1.3196 -0.3652,-0.6322 0.4675,-1.3942 -0.3298,-1.7281 -0.2868,-0.1021 -0.5067,-0.2867 -0.7933,-0.2867 -0.0825,0 -0.1729,0.0156 -0.2672,0.055 m 0.9269,5.9306 c 0.0629,-0.762 0,-1.622 0.4006,-2.1837 0.5303,0.2317 1.0213,0.4594 1.4927,0.7974 0,0.4594 -0.4714,0.4594 -0.6325,0.7893 -0.4005,0.4005 -0.7658,0.9348 -1.2608,1.1625 -0.165,-0.0941 -0.0667,-0.3927 0,-0.5655" /><path
           id="path1009"
           style="fill:#deddde;fill-opacity:1;fill-rule:nonzero;stroke:none"
           d="m 510.5226,435.2265 -0.267,0.2317 0.0313,3.3463 h 0.0708 l 0.0982,3.8451 c 0.0667,0 0.0941,0.0707 0.0667,0.1295 -0.0392,0.2357 0.326,0.1729 0.3967,0.3026 0.5302,0.0667 0.9308,-0.0669 1.2568,-0.3614 0.4006,-0.7304 0.8641,-1.3667 1.2922,-2.1287 0.2003,0.1059 0.0354,-0.165 0.1336,-0.2319 0.1649,-0.1333 0.3652,-0.2944 0.3652,-0.5301 0.4634,-0.4909 0.6284,-1.1272 1.1273,-1.4571 0.0352,1.3275 0.1374,2.7846 -0.0354,4.0493 0.2356,0.1296 -0.0942,0.6953 0.3064,0.6599 0.4281,0.0354 1.2568,0.2357 1.2568,-0.3301 0,-0.5968 0.0353,-1.2921 0.1649,-1.8263 -0.1649,0 -0.0983,-0.1688 -0.0983,-0.2629 0.165,-1.6223 0.0629,-3.484 0.0983,-5.1767 -0.4006,-0.3299 -1.0919,-0.165 -1.5945,-0.1296 -0.5617,0.6324 -0.7621,1.3275 -1.2884,1.9559 -0.2356,0.6599 -0.7345,1.1901 -1.0997,1.7556 -0.3928,0.2003 -0.2631,1.033 -0.8287,0.9977 -0.1257,-1.6574 -0.1257,-3.2206 -0.3652,-4.7721 -0.1298,-0.0667 -0.3105,-0.0863 -0.5067,-0.0863 -0.1925,0 -0.4007,0.0196 -0.5813,0.0196" /><path
           id="path1011"
           style="fill:#deddde;fill-opacity:1;fill-rule:nonzero;stroke:none"
           d="m 521.3314,436.0512 c -0.503,1.8263 -0.7307,3.8138 -1.0331,5.7735 -0.1649,0.4243 -0.2278,0.8565 -0.2591,1.3866 -0.1061,0.271 0.1649,0.3024 0.2316,0.4359 0.6599,0.2317 1.4571,0.2592 2.117,0.4948 0.5656,0.2986 1.4924,0.2672 2.1916,0.1965 0.2278,-0.1296 0.5342,-0.1649 0.7933,-0.2945 1.4299,-1.1626 2.2545,-3.0164 1.6889,-5.2042 -0.5617,-1.4649 -2.0816,-2.1208 -3.5781,-2.4547 -0.644,-0.0863 -1.1507,-0.3614 -1.7948,-0.3614 -0.1137,0 -0.2357,0.008 -0.3573,0.0275 m 1.9518,6.9008 c -0.3652,-0.1059 -0.6597,-0.3024 -1.1272,-0.3024 -0.5577,-0.2945 -0.0626,-0.9898 -0.0626,-1.4925 0.2316,-1.0918 0.2002,-2.4194 0.7304,-3.2796 0.9936,-0.0313 1.8185,0.3301 2.4155,0.8249 0.2003,0.1021 0.0393,0.3652 0.2984,0.436 0.3025,0.8561 0,1.8538 -0.2984,2.6512 -0.3575,0.538 -0.876,1.1822 -1.681,1.1822 -0.0903,0 -0.1807,-0.004 -0.2751,-0.0198" /><path
           id="path1013"
           style="fill:#deddde;fill-opacity:1;fill-rule:nonzero;stroke:none"
           d="m 505.9744,435.7567 c -0.0982,0.6284 -0.0274,1.3237 -0.5262,1.6535 l -0.4989,0.0354 c -0.0354,0.2003 -0.2945,0.0354 -0.4281,0.1296 -0.4635,0.2003 -1.029,0.2003 -1.5278,0.3652 -0.593,-0.2632 -0.593,-0.9898 -1.1626,-1.3275 -0.2632,0.1061 -1.1272,0.1374 -1.2568,0.5028 0.1296,0.5615 0.4988,0.9268 0.7579,1.3864 1.1273,1.7635 2.4548,3.5819 3.6174,5.2747 h 0.2631 c 0.0983,-0.2003 0.4007,-0.0354 0.5343,-0.1296 0.2277,-0.1335 0.6638,-0.0707 0.7304,-0.4359 0.3261,-1.7243 0.4989,-3.4759 0.762,-5.2709 -0.1374,-0.86 0.4281,-1.6574 0.0354,-2.4822 -0.5342,0 -0.9348,0.059 -1.3001,0.2985 m -1.0251,3.2167 c 0.3339,0 0.5617,0 0.6638,0.2945 -0.1649,0.4675 -0.0667,0.9585 -0.2003,1.4296 -0.1021,0.2947 -0.0354,0.762 -0.2004,1.0213 -0.5576,-0.6912 -1.0564,-1.4924 -1.3903,-2.3488 l 0.5617,-0.2316 c 0.0824,-0.0708 0.2003,-0.0589 0.3102,-0.0589 0.1061,0 0.2082,-0.0119 0.2553,-0.1061" /><path
           id="path1015"
           style="fill:#deddde;fill-opacity:1;fill-rule:nonzero;stroke:none"
           d="m 538.9702,517.6511 c -0.5301,0.165 -0.6953,-0.5263 -1.2608,-0.4634 -0.2317,0.0353 -0.334,0.2632 -0.6323,0.2632 -0.2947,0.0392 -0.2947,-0.2279 -0.6324,-0.1336 -0.1649,0.6362 0.6324,0.6362 0.5655,1.1626 -0.0942,0.0353 -0.2591,0.0707 -0.2591,0.2356 0.0313,0.4281 0.597,0.4635 0.8248,0.7579 0.9267,0.2711 2.1563,-0.4594 2.5569,0.4989 0.0313,0.3339 0,0.762 -0.3652,0.7974 -0.2711,-0.1691 -0.6953,-0.6285 -1.0331,-0.4281 0,0.1924 -0.1649,0.1924 -0.2319,0.3298 -0.2983,-0.1021 -0.5655,-0.4006 -0.9267,-0.271 0.1689,0.4006 -0.2985,0.4713 -0.1336,0.8681 -0.9623,0.9936 -1.9284,1.2136 -2.0541,3.5387 -0.1649,0.2003 -0.3299,0.2749 -0.4675,0.436 0.1022,-0.5617 0.3379,-1.0918 0.2318,-1.7911 0.0708,-0.3967 0.4006,-0.7265 0.5971,-1.0564 0.4359,-0.7973 -0.7267,-0.8327 -0.5971,-1.7243 0.1061,-0.3298 0.5302,-0.6008 0.436,-0.9269 -0.2985,-0.5027 -1.622,0.0629 -1.1272,-0.8012 0.0353,-0.326 -0.5302,-0.2985 -0.8013,-0.2278 -0.2318,0.0629 -0.3614,0.2631 -0.6912,0.2278 -0.102,-0.0982 -0.2672,-0.326 -0.1336,-0.5617 0.169,-0.1295 0.0629,-0.4634 0.0983,-0.6951 -0.2319,-0.169 -0.1649,-0.5617 -0.5302,-0.4988 -0.0669,0.5655 -0.8602,0.3652 -0.9623,0.8641 -0.0669,0.2003 -0.1296,0.3927 -0.326,0.4634 -0.2711,0 -0.3064,-0.2631 -0.436,-0.4988 -0.0629,-0.2003 -0.2319,-0.3653 -0.2945,-0.5655 -0.436,-0.063 -0.9623,-0.0276 -1.2649,-0.1612 l -0.0626,0.6913 c -0.6324,0.1336 -1.2924,-0.6913 -1.8226,-0.2278 -0.102,0.3614 -0.6322,0.2632 -0.9622,0.2278 0.0274,0.762 0.8956,0.762 1.2608,1.3275 0.0942,-0.0354 0.1611,0.0708 0.2591,0.0982 -0.098,0.165 -0.2983,0.2004 -0.3927,0.3653 0,0.4359 0.5579,0.1689 0.6953,0.4359 0.6912,0.0983 0.9936,-0.7345 1.7241,-0.4988 0.3929,0.0629 0.7306,0.1965 1.0605,0.3967 0.1021,0.3653 0.3968,0.601 0.267,1.0645 -0.3024,0.4634 -1.2647,0.1649 -1.1624,0.9936 -0.1651,0.4321 0.0627,0.8249 0.3299,1.0605 0.5301,0.0275 0.4673,-0.762 0.9976,-0.7345 0.0352,-0.1924 0.1649,0.1374 0.3652,0.1061 0.0942,0.2316 0.1296,0.4281 0.3299,0.593 -0.1649,0.2985 0.2317,0.1649 0.2317,0.3653 0.0628,0.5341 0.7306,0.4006 0.7306,0.9269 -1.0918,0.1375 -1.9874,-0.3298 -2.8553,-0.7266 -0.9939,-0.2357 -2.0896,-0.3025 -3.146,-0.4635 -0.1023,-0.1021 -0.0354,-0.267 -0.0354,-0.4006 0.1295,-0.3652 0.6951,-0.1649 0.6009,-0.6991 -0.271,-0.3927 -0.7658,-0.2278 -1.2334,-0.2632 v 0.0354 c -0.0274,0 -0.3652,-0.1021 -0.1649,-0.3299 0.0707,-0.271 0.5302,-0.2003 0.4675,-0.4634 -0.0707,-0.1375 -0.1023,-0.2986 -0.2356,-0.3693 -0.4597,0 -0.5264,-0.2004 -0.927,0 -0.2318,0.1336 -0.5263,0.5342 -0.7973,0.5342 -0.4596,-0.6992 0.7304,-1.1626 -0.2945,-1.4925 h -0.3968 c -0.271,0.0629 -0.4006,0.2279 -0.6953,0.2631 -0.2316,-0.0628 -0.3023,-0.3338 -0.4712,-0.4987 0.0706,-0.2278 -0.1256,-0.165 -0.2318,-0.2278 -0.2277,-0.1375 -0.0941,0.2278 -0.3298,0.1649 -0.0669,0.1649 -0.2318,0.0629 -0.3652,0.0982 -0.7936,-0.4988 -0.2004,-1.8892 -1.0293,-2.3251 -0.4947,0 0,0.8994 -0.6243,0.8286 -0.2357,0.0708 -0.2003,0.4047 -0.3024,0.5971 -0.0982,0.1021 -0.3654,0.1021 -0.3929,-0.0275 -0.3652,-0.6283 -0.6322,-1.4611 -1.5592,-1.2922 -0.1649,-0.1336 -0.271,-0.597 -0.5301,-0.2985 -0.1376,0.3927 0.0942,1.0211 -0.1651,1.3197 -0.7305,0.1336 -1.2332,-0.8562 -1.8302,-0.2278 -0.3652,0.2985 -1.0565,-0.4989 -0.9229,0.2985 0.1649,0 0.0314,0.2278 0.1296,0.2985 0.6284,0.2317 0.6637,1.0919 1.4924,1.029 -0.2003,0.165 -0.4006,0.2631 -0.6991,0.2631 -0.2316,0.5302 0.3693,0.3299 0.4988,0.5302 0.3693,-0.0667 0.4635,0.165 0.8641,0.0708 0.2356,-0.3064 0.6324,-0.436 1.0918,-0.3652 1.3943,0.6558 2.6197,1.7556 3.5466,3.0123 0.3024,0.0982 0.3377,-0.2985 0.5027,-0.4634 0.4283,-0.2945 0.8249,-0.8287 1.355,-1.0565 0.6678,-0.0707 0.9623,1.355 1.524,0.3574 0.5971,-0.0668 0.8327,0.5342 1.3275,0.7974 0.2319,0.4005 0.7305,0.8011 0.8328,1.3629 0.1649,0.5301 1.6927,0.0312 1.1272,0.8915 -0.1023,0.4635 0.098,0.7658 0.4948,0.8286 -0.0354,0.2358 -0.1296,0.6638 -0.0983,1.0291 0.0629,0.436 -0.1649,1.0959 0.2357,1.3274 0.2278,0.063 0.2947,0.1337 0.5617,0.0983 v -0.0353 c 0.8602,-0.1925 1.7872,0 2.7179,0 l 1.524,0.0353 v -0.0353 l 1.6574,-0.0942 v -0.0354 c 1.3275,-0.0629 2.2191,-0.7266 3.3147,-1.0919 v -0.0353 c 0.762,0.0353 1.7559,-0.0629 2.0542,0.7266 0.1377,0.267 0.3026,0.5026 0.2318,0.8994 -0.2318,0.5656 -0.7619,0.8287 -1.3865,0.8287 -0.2003,0 -0.2003,-0.2985 -0.2003,-0.4988 0.0628,-0.2003 0.4635,-0.3653 0.2003,-0.5655 l -0.4319,-0.1336 c -0.0354,0.1728 -0.2986,0.0353 -0.4006,0.1336 -0.5971,0.0666 -0.5656,1.0643 -1.2215,0.5301 -0.1376,-0.3927 -0.7306,-0.1924 -0.9622,-0.3927 -0.2711,0.5263 0.4319,0.4909 0.2316,1.029 -0.8994,0.3613 -1.9559,0.0982 -2.9575,0.2278 v 0.0707 c -0.6558,0.0628 -1.1862,0.1924 -1.8892,0.2278 -0.6245,0.2357 -1.2921,0.6284 -1.5866,1.1626 -0.4321,0.5655 -0.4675,1.3275 -0.2357,2.0188 0.4635,0.8012 1.3276,1.4925 2.2897,1.791 0.4008,0.0353 0.8602,0.2356 1.0604,0.5655 0,0.3614 -0.1295,0.6324 -0.4318,0.8327 l -0.5933,0.0314 c -0.2003,0.5971 0.5304,0.2277 0.6953,0.4634 0.8247,0 1.3942,-0.4359 1.622,-1.0918 -0.0628,-0.436 0.1021,-0.7659 0.4675,-0.864 0.6598,-0.0668 1.622,-0.8288 2.1522,-0.0668 0.1965,0.6597 -0.5655,0.5302 -0.4281,1.0565 0.4597,0.1021 0.762,-0.1257 1.0252,-0.326 0.4359,-0.4989 0.3967,-0.9977 0.2356,-1.6574 -0.1061,-0.436 -0.5655,-0.5342 -0.4988,-1.0331 -0.267,-0.2631 0.0629,-0.4634 0.0629,-0.7619 0,-0.0943 0.2357,-0.3928 -0.0314,-0.4594 -0.1689,0.1649 -0.5657,0.0666 -0.6991,0.2945 -0.0944,-0.1296 -0.0315,-0.2945 -0.0315,-0.4281 h -0.5302 c 0,0.2002 -0.2003,0.0274 -0.2672,0.1336 l -0.4241,0.5301 c -0.1336,-0.271 0.0943,-0.5655 -0.1689,-0.6637 -0.432,0.0274 -0.6675,0.4281 -0.8995,0.6912 -0.424,-0.0275 -0.6596,-0.4281 -1.0603,-0.4635 -0.2318,0.0982 -0.6283,-0.0667 -0.6283,0.271 0.2316,0.2279 0.534,0.2986 0.6637,0.6558 -0.1023,0.2358 -0.1611,0.499 -0.4321,0.6639 -0.3968,0.0707 -0.7974,-0.0982 -1.0252,-0.2985 -0.3024,-0.2945 -0.5301,-0.8287 -0.3652,-1.3863 0.2357,-0.3694 0.593,-0.7345 1.0606,-0.7975 0,-0.1649 0.2669,0 0.3298,-0.1373 0.3652,-0.0983 0.8327,-0.165 1.2646,-0.1258 v -0.0667 c 1.2922,0 2.4823,-0.1336 3.8805,-0.0707 v -0.0629 c 0.491,0 1.0211,-0.1649 1.5241,-0.0353 0.1962,0.5341 0.5301,1.0251 1.0564,1.19 0.3299,0 0.7621,0.0708 0.7621,-0.2945 -0.2948,-0.1689 -0.4322,-0.4988 -0.5618,-0.762 -0.0983,-0.5616 0.102,-0.9269 0.3614,-1.2921 0.2395,-0.4634 0.2984,-1.1626 0.0705,-1.626 -0.102,-1.0919 -1.2567,-1.2609 -2.0541,-1.5907 0.0944,-0.2632 0.2278,-0.4989 0.3967,-0.6992 0.4007,-0.3652 0.3653,-1.029 0.9583,-1.1272 v -0.0354 c 0.5971,-0.2944 0.8681,0.3693 1.3945,0.1729 v -0.7305 c -0.2673,-0.0354 -0.0983,-0.2985 -0.165,-0.4635 0.5655,-0.3339 0.9269,0.3927 1.2568,0.0942 0.1649,-0.6913 -0.3652,-1.0919 -0.6246,-1.4925 0,-0.4909 0.0629,-0.8561 0.165,-1.3196 0.0275,-0.0708 0.0944,-0.4006 0.33,-0.2711 -0.0353,-0.0628 0.0629,-0.1295 0.1296,-0.0941 h 0.1649 c 0.271,-0.5696 -0.695,-0.5696 -0.1649,-1.0685 -0.3968,-0.3298 -0.3299,-0.7932 -0.3968,-1.3863 -0.3652,-0.2357 -0.2003,-1.033 -0.695,-0.9976 -0.2947,0.5617 -0.8916,0.6283 -1.4571,0.864 -0.0708,-0.4006 -0.3027,-0.5655 -0.5971,-0.7658 -0.5655,0.102 -0.495,-0.4989 -0.8956,-0.6638 -0.3966,0.2357 -0.1649,0.8641 -0.2316,1.3275" /><path
           id="path1017"
           style="fill:#deddde;fill-opacity:1;fill-rule:nonzero;stroke:none"
           d="m 518.0792,525.0428 c -0.2003,0.2004 -0.0353,0.6639 -0.1296,0.9308 -0.4005,0.1336 -0.3298,-0.5655 -0.6677,-0.2003 -0.2004,0.169 -0.1335,0.4635 -0.2592,0.6363 0.1611,0.1611 0,0.6246 0.1257,0.8602 0.0708,0.2671 0.2711,0.3928 0.2711,0.6913 -0.0354,0.102 -0.1651,0.1374 -0.2357,0.0667 -0.1611,-0.1295 -0.1611,-0.3299 -0.4675,-0.2945 l -0.0941,0.695 c -0.165,-0.0666 -0.2986,-0.3652 -0.601,-0.2315 -0.4634,1.1939 0.8954,1.7556 0.3024,2.6196 0.0353,0.2632 -0.2316,0.2632 -0.3024,0.4635 -0.1649,0.0629 -0.6558,-0.1336 -1.0251,0 -0.267,0.4281 -0.6638,0.7266 -0.6284,1.2922 h 0.2985 c 0,-0.0629 0.1021,-0.0982 0.165,-0.0629 0.2278,0.0982 0.4281,0.2985 0.6991,0.3613 0.2632,0.0354 0.593,-0.4987 0.7266,-0.2277 -0.1649,0.8562 -1.1273,0.9936 -1.5278,1.622 -0.0982,0.0982 -0.3614,-0.0313 -0.3614,0.1336 0.165,0.4635 0.8641,0.4281 1.1901,0.6913 0.4988,-0.0276 0.7345,-0.3968 0.9307,-0.7267 l 0.2986,-0.2003 c 0.3613,0.8994 -1.0919,1.2922 -0.4006,1.9914 0,0.2985 -0.2945,0.4987 -0.2278,0.7932 0.6951,0.0708 0.8954,-0.7932 1.4611,-0.8561 0.1649,-0.1729 0.0588,-0.3024 0.2238,-0.436 0.0353,-1.7203 0.5026,-3.146 1.2646,-4.4736 0.3339,-0.7932 0.3339,-1.8576 0.3339,-2.8199 -0.2003,-0.0629 -0.0392,-0.3614 -0.1689,-0.4634 -0.1021,-0.2004 -0.165,-0.4989 -0.1296,-0.7974 0.2985,-0.267 0.9898,-0.2003 0.9269,-0.7933 0.0629,-0.436 0.1336,-1.0644 -0.3693,-1.2255 -0.593,-0.0667 -0.593,-0.7304 -1.0249,-0.9661 -0.4321,0.0354 -0.495,0.5655 -0.5971,0.9268" /><path
           id="path1019"
           style="fill:#deddde;fill-opacity:1;fill-rule:nonzero;stroke:none"
           d="m 518.4091,533.7346 c -0.1334,0.4281 0.0315,1.0291 -0.1334,1.3551 0,0.4359 0.2983,0.6991 0.2711,1.1626 0.2316,0.267 0.4947,-0.1611 0.5968,-0.3614 0.0275,-0.4635 0.7581,-0.6637 0.2985,-1.1626 -0.3339,-0.3299 -0.4988,-0.6638 -0.6991,-1.0644 -0.0471,-0.0471 -0.0863,-0.0628 -0.1217,-0.0628 -0.0865,0 -0.1414,0.1099 -0.2122,0.1335" /><path
           id="path1021"
           style="fill:#deddde;fill-opacity:1;fill-rule:nonzero;stroke:none"
           d="m 523.8174,529.0609 c 0.0982,0.6283 -0.3023,1.5552 0.2947,1.8851 0.436,0.0983 0.6363,-0.0942 0.6951,-0.3927 0.1374,-0.4007 -0.0275,-0.9348 0.1728,-1.2647 -0.1728,-0.2985 -0.267,-0.5617 -0.5696,-0.6912 -0.2277,0.0941 -0.4594,0.2277 -0.593,0.4635" /><path
           id="path1023"
           style="fill:#deddde;fill-opacity:1;fill-rule:nonzero;stroke:none"
           d="m 508.166,517.4233 c -0.597,0.2278 -0.5617,-0.5341 -1.1272,-0.4359 -0.4281,-0.5263 -0.2631,0.4005 -0.6991,0.3023 -0.165,-0.102 -0.3927,-0.1649 -0.6638,-0.1649 -0.1924,0.3261 0.1728,0.4635 0.2711,0.6913 0.0667,0.1649 0.3652,0.1649 0.2631,0.5301 -0.0982,0.0354 -0.1689,0.0983 -0.2631,0.0983 0.1295,0.5341 0.7304,0.6991 1.2214,0.8286 l 0.7973,0.0354 v -0.0354 c 0.3024,-0.1295 0.8641,0.0354 1.2647,0.2003 0.326,0.0708 0.1257,0.4675 0.1925,0.7345 -0.4635,0.6913 -0.927,-0.3652 -1.5554,-0.1021 0.0354,0.165 -0.0353,0.2946 -0.1296,0.3653 -0.2985,-0.0707 -0.4634,-0.4005 -0.8287,-0.3653 -0.2043,0.4635 -0.1689,0.9937 -0.5695,1.2923 -0.3927,0.4359 -0.6991,0.4988 -0.9661,1.0289 -0.3261,0.0629 -0.2278,0.4635 -0.4989,0.6284 0,0.7974 -0.1257,1.7243 -0.817,2.0267 l -0.0707,-0.0393 c 0.5971,-0.5262 0.0707,-1.6889 0.6324,-2.2152 -0.0707,-0.6009 0.6913,-0.5655 0.4281,-1.2292 -0.2985,-0.2003 -0.593,-0.3299 -0.5617,-0.8287 -0.2631,-0.2004 0.0983,-0.2986 0.0354,-0.5618 0.1336,-0.2356 0.491,-0.5301 0.165,-0.8012 -0.3653,-0.2631 -1.2648,0.1375 -1.0998,-0.4909 0.0708,-0.1021 0.169,-0.4988 -0.0588,-0.4713 -0.5696,-0.2278 -0.9623,0.6362 -1.4258,0.0707 -0.0707,-0.5342 0.165,-1.1979 -0.271,-1.5278 -0.3928,0 -0.3653,0.5301 -0.8916,0.4635 -0.2631,0.0666 -0.2356,0.4005 -0.3298,0.6009 -0.1062,0.1649 -0.3339,0.3298 -0.5342,0.2003 -0.2357,-0.4007 -0.2632,-0.9624 -0.8641,-1.0291 v -0.0353 c -0.2003,0.102 -0.6913,-0.1336 -0.9269,-0.1336 -0.0629,0.2632 0.1649,0.7345 -0.165,0.8327 -0.597,-0.0354 -0.8286,-0.6638 -1.4886,-0.4359 -0.267,0.2002 -0.6362,0.695 -1.0014,0.3023 h -0.1258 c -0.0392,0.927 0.9898,0.9898 1.4533,1.5199 l -0.3261,0.334 c 0.0629,0.4006 0.5617,0.2356 0.7895,0.4006 0.4006,0 0.6991,-0.2986 1.0015,-0.4635 0.6559,-0.1649 1.2883,0.0629 1.6536,0.4635 0.1295,0.2985 0.3652,0.5616 0.2631,0.9897 -0.4281,0.3024 -1.0918,0.2711 -1.1547,0.9308 l -0.0354,0.4988 c 0.0629,0 0.0983,0.0629 0.0629,0.169 0.1021,0.0667 0.1649,0.3928 0.3339,0.3928 0.4948,-0.0983 0.4673,-1.1548 1.2922,-0.6913 0.3023,0.7933 0.695,1.3904 1.3275,1.9205 -0.9977,0.2278 -1.791,-0.1649 -2.553,-0.5655 -0.864,-0.3614 -1.3904,-0.2986 -2.3565,-0.5263 -0.3614,0.0982 -0.8916,0.0982 -1.0919,-0.165 -0.1689,-0.6362 0.6951,-0.4713 0.5656,-1.033 -0.3339,-0.267 -0.927,-0.2003 -1.363,-0.1295 -0.2002,-0.5302 0.7621,-0.6009 0.2633,-1.1273 -0.4635,-0.3652 -1.0252,0.0354 -1.3905,0.2278 0.0707,0.2357 -0.2002,0.0708 -0.1649,0.2711 -0.1336,-0.1062 -0.3339,-0.1375 -0.4006,-0.2986 0,-0.4006 0.6362,-0.864 0.0667,-1.1626 -0.4634,-0.102 -0.4281,-0.102 -0.8915,0 -0.2004,0.1336 -0.3299,0.2986 -0.6638,0.2318 -0.2632,-0.2318 -0.1649,-0.6324 -0.4948,-0.7973 -0.2356,0.0354 -0.271,0.3653 -0.597,0.2631 -1.0016,-0.4281 -0.0708,-2.0541 -1.2647,-2.2819 -0.1336,0.3653 -0.2986,0.762 -0.5931,0.9898 -0.0982,0.1649 -0.2043,0.6009 -0.5341,0.4006 -0.4635,-0.4006 -0.5617,-1.4611 -1.2922,-1.2255 -0.4635,0.0982 -0.2985,-0.6637 -0.7974,-0.4005 -0.428,0.4634 0.3693,1.5278 -0.7579,1.3629 -0.5342,-0.2357 -0.8681,-0.7346 -1.4611,-0.2357 -0.2357,0.2003 -0.4635,-0.0982 -0.7267,0 -0.1728,0.8287 0.8603,0.9622 1.1272,1.5907 0.1337,0 0.2986,-0.0629 0.3614,0.0353 -0.0982,0.2985 -0.4988,0.165 -0.6283,0.4282 0.1649,0.4359 0.7304,0.271 1.0564,0.4987 0.4989,-0.2631 1.2293,-0.6284 1.8264,-0.2277 0.6009,0.1649 0.9661,0.7225 1.5278,0.9936 0.4989,0.4635 0.9936,1.0252 1.4571,1.626 0.2357,-0.0353 0.2003,0.2278 0.4635,0.1296 0.4634,-0.5302 0.9269,-1.5553 1.9559,-1.3629 0.169,0.271 0.4635,0.4635 0.762,0.5696 0.2003,0 0.2357,-0.1729 0.3339,-0.2357 1.1939,-0.0354 1.791,1.2921 2.3565,2.0896 0.1296,0.4673 0.8287,0.0666 1.0565,0.4005 0.0982,0.3653 -0.2278,1.1272 0.2632,1.2214 h 0.1336 c 0.102,0.7974 -0.2279,1.96 0.3023,2.5255 l 1.7556,-0.0354 c 0.2357,-0.3023 0.2986,0.1337 0.5971,0 1.0918,0.063 2.2545,0.063 3.3188,0 -0.0353,-0.0666 0.0275,-0.0666 0.0629,-0.102 0.0667,0.2003 0.1295,0 0.3023,0 l 0.8562,-0.0354 c 0,-0.1924 0.2357,-0.0275 0.2985,-0.1649 1.4258,0 2.0621,-1.4532 3.747,-0.9269 0.3967,0.1649 0.7973,0.5655 1.033,0.9269 0.1649,0.5655 -0.0707,1.029 -0.4006,1.3275 -0.2357,0.2003 -0.6324,0.165 -0.9623,0.165 -0.0982,-0.165 -0.2632,-0.2278 -0.2003,-0.4635 0.0667,-0.165 0.3299,-0.2278 0.2357,-0.5618 -0.169,-0.2002 -0.5617,-0.1295 -0.7974,-0.0666 -0.5301,0 -0.4634,0.9936 -1.1901,0.6284 -0.2669,-0.326 -0.6637,-0.3927 -1.131,-0.3927 l -0.1336,0.1649 c 0.2003,0.2278 0.5616,0.4635 0.3692,0.8916 -0.5696,0.1649 -1.1979,0.0707 -1.795,0.0982 0,0.0667 -0.1021,0.102 -0.1649,0.102 -0.3653,-0.1649 -0.8916,0.0354 -1.3942,0.0354 -1.3237,0.2631 -2.8516,0.4281 -3.2797,1.7556 -0.0707,0.4635 -0.1374,0.762 -0.102,1.2608 0.1649,0 0.0667,0.2004 0.102,0.2945 0.1337,0.436 0.3968,0.7974 0.762,1.0998 0.6284,0.927 2.1563,0.4635 2.6551,1.4532 0.1296,0.3024 -0.2003,0.3378 -0.2357,0.5656 -0.0982,0.1336 -0.4988,0.0982 -0.593,0.1689 v -0.0353 c -0.1061,0.0667 -0.4047,0.0353 -0.2711,0.3298 0.4007,0.0354 0.8288,0.4989 1.2647,0.1336 h 0.2278 c 0.762,-0.2632 0.7974,-1.1272 1.0644,-1.7556 0.7973,-0.0983 1.355,-0.6324 2.2898,-0.4321 0.0629,0.2632 0.2278,0.3614 0.1649,0.6991 l -0.5027,0.4635 c 0.1021,0.0628 0.1728,0.2632 0.3653,0.2003 0.0982,-0.1375 0.2985,-0.1729 0.5342,-0.1729 0.5302,-0.326 0.593,-0.9268 0.5302,-1.6181 -0.0667,-0.3653 -0.4007,-0.5302 -0.5302,-0.8641 -0.0982,-0.2985 -0.2357,-0.6991 -0.0982,-1.029 0.0982,-0.1689 0.3927,-0.3614 0.1335,-0.5616 -0.4987,-0.2004 -0.4987,0.2985 -0.8327,0.3613 -0.1295,-0.2631 0.0982,-0.5263 -0.2003,-0.6284 -0.4634,0.0313 -0.864,0.3653 -1.029,0.7658 -0.2631,-0.271 0.3377,-0.5341 -0.1336,-0.6362 -0.6912,-0.2278 -0.8287,1.4296 -1.4571,0.3652 -0.2631,-0.0275 -0.3613,-0.3652 -0.762,-0.2277 -0.1649,0.0982 -0.4634,0.161 -0.3298,0.4634 0.2945,-0.0353 0.4006,0.2632 0.5655,0.4281 0.0629,0.3693 -0.1649,0.5342 -0.3298,0.7345 -0.5342,-0.0354 -1.2334,-0.1375 -1.3983,-0.6991 -0.2278,-0.2003 -0.1649,-0.6638 -0.0982,-0.9269 0.3692,-0.927 1.4965,-0.8995 2.3252,-1.1273 0.9543,-0.2003 2.1208,0.0275 3.0123,-0.1649 0.0708,0.1649 0.2986,0.0628 0.4635,0.0628 v -0.0353 l 1.5632,-0.0983 v -0.0313 c 0.2278,-0.0628 0.6638,-0.1336 0.8249,0.1021 0.1374,0.5263 0.4359,1.0251 1.0289,1.1547 0.2004,0.0707 0.5618,0.1021 0.6992,-0.1296 0.0275,-0.5617 -0.6363,-0.6599 -0.5655,-1.2254 0.2003,-0.8287 0.7658,-1.4612 0.6637,-2.4194 -0.2043,-0.6638 -0.6324,-1.0997 -1.1272,-1.4611 -0.3692,-0.1296 -0.8327,-0.2357 -1.1272,-0.4635 0.758,-0.5655 0.5301,-2.2857 2.0855,-1.7556 0.1689,0.0983 0.3967,0.1924 0.5616,0.2278 0.2711,-0.0983 0.1021,-0.4988 0.1729,-0.7266 -0.1729,-0.1375 -0.1729,-0.3653 -0.1729,-0.5656 0.6363,-0.3614 0.6992,0.4635 1.2647,0.1649 0.2631,-1.0564 -1.029,-1.2293 -0.6009,-2.3211 0.1374,-0.2318 -0.0629,-0.7266 0.3377,-0.8249 0.1611,-0.0353 0.3614,0 0.3968,-0.2002 -0.1336,-0.3299 -0.3692,-0.7659 -0.271,-1.194 -0.5617,-0.0982 -0.0628,-0.9269 -0.4281,-1.1626 -0.1336,-0.3338 -0.1336,-0.7266 -0.4006,-0.9897 0,-0.1021 -0.1611,0 -0.2278,-0.0354 -0.0708,0.7266 -0.8994,0.597 -1.3237,0.9623 -0.3024,-0.2357 -0.4006,-0.6991 -0.8287,-0.8641 -0.2985,0.0629 -0.4006,-0.1649 -0.5655,-0.2985 0.0667,-0.165 -0.0982,-0.165 -0.169,-0.2632 -0.4594,0.0982 -0.2945,0.8562 -0.3299,1.2608" /><path
           id="path1025"
           style="fill:#deddde;fill-opacity:1;fill-rule:nonzero;stroke:none"
           d="m 487.2751,524.4458 c -0.1649,0.3693 -0.1296,0.8994 -0.2003,1.3275 -0.2632,0.0354 -0.1924,-0.4281 -0.593,-0.2632 -0.2632,0.5971 -0.2985,0.9978 -0.169,1.689 0.0707,0.2357 0.2985,0.2985 0.271,0.6363 -0.1728,-0.1021 -0.4713,-0.1728 -0.6637,-0.3378 -0.0354,0.267 -0.2003,0.3378 -0.1374,0.6284 -0.165,0 -0.3928,-0.3614 -0.6285,-0.0982 -0.2277,0.7973 0.4281,1.3629 0.4635,2.1878 -0.0354,0.2669 -0.0629,0.5026 -0.2278,0.7304 -0.1336,0.2356 -0.5342,0.1649 -0.762,0.0983 v -0.0276 c -0.6991,-0.0707 -0.8011,0.5617 -1.0997,0.9624 -0.0982,0.1649 -0.0354,0.428 0.1374,0.4594 0.0983,-0.0667 0.2986,-0.1649 0.491,-0.1296 0.2357,0.2278 0.4713,0.3339 0.8287,0.2632 0.1689,0 0.2356,-0.3653 0.4713,-0.2279 -0.1728,0.9624 -1.1939,1.0566 -1.7281,1.7203 h -0.2003 c -0.0354,0.4635 0.5656,0.6284 0.9269,0.762 0.8641,0.3339 1.029,-0.5617 1.4925,-0.8287 0,0.4635 -0.0942,1.1273 -0.593,1.3275 0.0353,0.3299 0.3298,0.927 -0.0354,1.2293 v 0.2632 c 0.6991,-0.165 1.1272,-0.6991 1.6614,-1.1626 -0.0354,-1.9206 0.593,-3.3816 1.3589,-4.8388 0.0628,-0.9269 0.4988,-1.9246 0.1336,-2.8553 0.1295,-0.4242 -0.2711,-0.5971 -0.1336,-1.0605 0.0982,-0.2632 0.4988,-0.0667 0.6912,-0.165 0.1336,-0.5262 0.5696,-1.3275 0,-1.7202 -0.6559,-0.1649 -0.758,-0.762 -1.2214,-1.1272 -0.3693,0 -0.4006,0.3298 -0.5342,0.5576" /><path
           id="path1027"
           style="fill:#deddde;fill-opacity:1;fill-rule:nonzero;stroke:none"
           d="m 487.5107,534.1627 -0.0707,0.9977 c 0.2044,0 0.0354,0.2316 0.1336,0.2945 0.2986,0.1728 0,0.9977 0.4635,0.6638 l 0.6991,-1.2922 c -0.169,-0.593 -0.6991,-0.9898 -0.9623,-1.4611 -0.2985,0.1061 -0.2003,0.5342 -0.2632,0.7973" /><path
           id="path1029"
           style="fill:#deddde;fill-opacity:1;fill-rule:nonzero;stroke:none"
           d="m 489.6945,523.5897 c -0.1925,0.1336 -0.2278,0.4634 -0.165,0.6637 h 0.0708 l 0.0942,0.8287 h 0.0354 c 0.1649,0.7895 -0.0354,1.4886 -0.3653,2.0541 -0.3652,0 -0.6284,0.1336 -0.5263,0.5617 h 0.0629 l 0.0982,1.1272 0.0667,0.0354 c -0.2632,0.6638 0,1.6574 -0.2278,2.3211 h 0.0629 l 0.0982,1.2569 c 0.2003,0 -0.0354,0.3339 0.1649,0.3339 -0.0982,0.7933 1.1939,1.2254 0.3377,1.9559 -0.1374,0.2632 -0.1728,0.597 0.1258,0.7973 h 0.5302 v -0.0707 c 0.271,0 0.5341,-0.1296 0.8327,-0.0629 0.3652,0.6284 1.4217,0.0629 1.7556,0.8249 0.4006,-0.0628 0.6991,-0.4281 1.1626,-0.2278 0.1649,0.1021 0.2945,0.4281 0.5655,0.2278 0.2985,-0.2986 0.7266,-0.762 1.1548,-0.3614 0.2356,-0.2003 0.4713,-0.6283 0.864,-0.5302 0.2985,0.0667 1.1272,0.3299 1.198,-0.2356 -0.0354,-0.7267 -1.1272,-0.927 -0.4635,-1.7557 0.1295,-0.9898 0.0275,-2.2897 0.593,-3.0792 -0.0628,-0.3024 -0.3299,-0.4007 -0.4006,-0.6991 v -3.3189 c -0.3927,-0.0942 -0.4634,-0.5577 -0.4634,-0.8562 0.0707,-0.2985 0.0982,-0.6009 -0.3261,-0.6009 -0.3652,0.0942 -0.6009,-0.3339 -0.7658,-0.5617 l -0.1924,-0.2003 c -0.2003,-0.1021 -0.1336,-0.2631 -0.2632,-0.4634 -0.4046,-0.4281 -0.6363,-0.7658 -1.0998,-1.0016 -0.4359,-0.0628 -0.4712,0.6992 -0.864,0.4007 -0.2631,-0.4635 -0.6991,-0.6638 -1.2608,-0.6992 -0.9623,0.436 -0.9623,1.7282 -2.4901,1.3355 m 2.4901,1.6927 h 0.5263 c 0.3377,0.1965 0.8995,0.2907 1.029,0.7894 0.4635,0.2358 0.6363,-0.2002 0.9348,-0.3651 0.4635,0 0.4635,0.4634 0.6912,0.7304 0.1375,0.1336 0.2986,0.0982 0.334,0.3339 0.4634,0.1296 0.2945,0.7933 0.7304,1.029 l 0.0983,0.8249 h 0.0354 c -0.1062,0.6009 0.0275,1.2921 0.0549,1.9912 l -0.3535,0.0668 -0.1649,-0.8641 c 0.3652,-1.3942 -0.3614,-2.3565 -1.0605,-3.2206 -0.2003,-0.2003 -0.1728,-0.3968 -0.5027,-0.3339 -0.2279,0.169 -0.3339,0.3064 -0.6638,0.3064 -0.2277,-0.4006 -0.6245,-0.7345 -1.1272,-0.864 -0.1611,0.0274 -0.1728,0.2631 -0.271,0.4281 -0.2004,0.6991 -1.0565,1.0643 -1.2176,1.7555 -0.3299,-0.0274 -0.6951,-0.5617 -0.9308,-0.0274 0.0588,1.4179 -0.707,1.4179 -0.707,1.4179 0.0275,-0.7934 0.4713,-1.4808 0.6088,-2.2466 0.3339,0 0.4634,0.2003 0.7933,0.2003 0.6324,-0.4635 1.2255,-0.9977 1.1626,-1.9521 m 0.7816,2.7886 c 0.1728,-0.0354 0.5813,-0.5263 0.7895,-0.1374 1.2647,0.3182 0.2082,2.0737 0.8836,2.8121 0.7699,-0.1021 0.1415,-1.3354 0.5264,-1.7556 l 0.2985,0.2435 h -0.0354 c 0.1179,0.6285 -0.0275,1.6103 0.1375,2.0738 l -0.2278,0.0746 0.0707,0.0707 v 0.4556 h -0.1728 c -0.0707,-0.4556 -0.4556,-0.7737 -0.8444,-0.919 -0.3889,-0.0629 -0.6009,0.0745 -0.7384,0.3535 0.0313,0.8836 1.2136,0.8836 1.6652,1.4453 0.11,0.3495 -0.0982,0.5301 -0.2435,0.7737 -0.0707,0.2474 -0.2945,0.4752 0.0158,0.5106 0.2827,0.0708 0.4281,0.0903 0.5655,-0.0549 0.3535,-0.0708 0.7737,0.3181 0.9465,0.5262 l -0.1374,0.11 c -0.8836,-0.11 -2.3212,-0.4556 -2.9182,0.3181 l -0.11,-0.1807 c -0.0707,-0.4909 0.4989,-0.4909 0.8091,-0.6637 0.1807,-0.4635 0.6717,-0.6009 0.4989,-1.2372 -0.3182,-0.3456 -0.7424,-0.593 -1.198,-0.7345 -0.5263,0.1415 -1.1626,0.2436 -1.5121,0.6638 -0.216,0.707 0.4556,0.7777 0.4202,1.3432 0.0708,0.5931 -0.8445,0.3103 -1.2646,0.4556 v 0.0354 h -0.7424 c -0.1021,-0.2515 0.1807,-0.1807 0.1807,-0.3889 0.3102,-0.1728 0.5263,-0.3181 0.8445,0 0.3102,0.1728 0.4555,-0.1374 0.593,-0.3181 -0.0314,0 -0.0314,-0.0667 -0.1021,-0.0354 l -0.2278,-0.491 c -0.1453,-0.2119 -0.3889,-0.314 -0.3181,-0.6322 0.3181,-0.3142 0.6637,-0.6324 1.1626,-0.707 0.3102,-0.0707 0.75,-0.381 0.7187,-0.7737 -0.1061,-0.2082 -0.2789,-0.4164 -0.4909,-0.4164 -0.3182,-0.0392 -0.6363,0.2436 -0.8799,0.4164 -0.1453,0.1453 -0.0746,0.703 -0.4555,0.5263 -0.0354,-0.5971 0.047,-0.9073 -0.055,-1.5082 -0.0354,-0.2436 0.3181,-0.3889 0.0667,-0.5617 0.1806,-0.1453 0,-0.5656 0.1415,-0.7737 h 0.3023 c 0,0.4556 -0.1807,1.3354 0.2436,1.7202 0.9898,-0.4201 -0.1257,-2.1758 0.7933,-2.6393" /><path
           id="path1031"
           style="fill:#deddde;fill-opacity:1;fill-rule:nonzero;stroke:none"
           d="m 492.982,528.7623 c -0.1336,0.3652 -0.0708,0.7934 -0.0983,1.2214 h 0.0629 c 0.102,0.2319 -0.0629,0.762 0.3299,0.7974 0.3693,0.0707 0.597,-0.1296 0.7973,-0.3299 0,-0.6991 0.2356,-1.6889 -0.4006,-2.0229 -0.0394,-0.008 -0.0748,-0.0116 -0.114,-0.0116 -0.2631,0 -0.436,0.2003 -0.5772,0.3456" /><path
           id="path1033"
           style="fill:#f1f2f4;fill-opacity:1;fill-rule:nonzero;stroke:none"
           d="m 513.3937,453.9218 0.0354,0.0275 0.0392,-0.0275 h -0.0746" /><path
           id="path1035"
           style="fill:#deddde;fill-opacity:1;fill-rule:nonzero;stroke:none"
           d="m 513.4291,453.9493 c -0.4007,0.2239 -7.1248,3.9866 -18.8093,12.0813 -12.0656,8.3579 -12.8355,21.7471 -13.1811,24.5435 -0.3457,2.7848 -2.7297,52.1705 -2.7297,52.1705 h 69.4439 c 0,0 -2.384,-49.3857 -2.7297,-52.1705 -0.3456,-2.7964 -1.1155,-16.1856 -13.1772,-24.5435 -11.6845,-8.0947 -18.4085,-11.8574 -18.8169,-12.0813 m 0.373,10.2237 c -0.5616,-0.4008 -0.864,-0.9623 -1.3275,-1.4652 -0.2002,-0.3652 -0.6912,-0.5577 -0.7619,-1.025 l 0.4988,0.0629 c 0.2278,0.1021 0.593,0 0.7266,0.1688 0.9308,0.1689 1.7281,0.6953 2.2937,1.3629 -0.0392,0.2985 0.2985,0.4634 0.0628,0.6953 -0.1336,0.2904 -0.5067,0.4436 -0.8602,0.4436 -0.2512,0 -0.4909,-0.0784 -0.6323,-0.2433 m -1.1272,1.6574 c -0.0628,-0.1337 0.0354,-0.4007 -0.1335,-0.4675 -0.1297,-0.8601 -0.4282,-1.6928 -0.8287,-2.3172 0.7266,0.7893 1.3903,2.054 2.655,2.2191 0.0628,0 0.2632,0.0981 0.2632,-0.0708 0.2003,0 0.4281,-0.0315 0.4987,-0.1649 0.165,-0.0669 0.4635,-0.0943 0.5303,0.106 0.0353,1.1862 -0.1296,2.3134 0.1336,3.4091 0.2003,0.9269 1.1585,1.3944 1.9205,1.7597 0.5617,-0.0354 0.9269,0.2944 1.5278,0.102 v -0.0667 c 0.8916,0 1.4217,-0.3339 2.2191,-0.4006 0.2357,0.1296 0.6678,0.0981 0.8956,0.2357 0.4986,0.3966 1.029,-0.1061 1.63,-0.0708 v -0.0353 c 0.8561,-0.0315 1.6888,0.1688 2.3131,0.5655 0.165,0.4989 0.6325,0.6992 1.0331,0.927 0.2945,0.3023 0.7974,0.4321 1.1272,0.703 0.326,0.5891 1.2922,0.8563 1.1273,1.8224 0.8599,0.8287 1.6219,1.6182 2.0894,2.7808 0.165,0.5655 0.2317,1.3276 0.1296,1.9873 0.1375,0.4321 0.3024,0.7974 0.432,1.2333 0.0628,0.1296 -0.0314,0.3968 0.1297,0.4594 -0.0669,1.2962 0.2003,2.3213 0.8325,3.1539 l -1.7594,0.0629 v 0.0315 c -1.3591,0.2003 -2.3214,-0.2593 -3.4171,-0.4909 -0.0666,-0.0354 -0.1649,0 -0.1295,0.0941 -0.7974,-0.0275 -1.5948,-0.2945 -2.2898,-0.5302 -0.2947,-0.4949 -1.0252,-0.2593 -1.4925,-0.1649 -0.66,-0.3614 -1.359,-0.7973 -1.8892,-1.359 -0.3652,-0.1296 -0.3652,-0.5302 -0.762,-0.5656 -0.762,0.2357 -1.1626,-0.4947 -1.5278,-0.9269 -0.0314,-0.2316 -0.3299,-0.2945 -0.3299,-0.5301 -0.2672,-0.2357 -0.33,-0.8603 -0.9623,-0.6913 -0.3652,-0.2003 -0.4321,-0.7307 -0.5263,-1.1626 -0.0982,-0.1336 0.0667,-0.436 -0.1336,-0.5027 -0.267,-1.6575 0.2947,-3.0125 0.0982,-4.674 -0.4594,-0.9582 -1.2254,-1.8577 -2.2857,-2.2544 -0.6991,0.0668 -0.4006,0.8994 -0.6009,1.3275 -0.1965,1.8892 -0.5971,3.5193 -0.5617,5.4712 0,1.2922 -0.2004,2.384 0,3.7115 h 0.0353 v 1.7243 l -1.3903,0.0354 c -0.3378,0.0667 -0.1375,-0.3299 -0.3378,-0.4006 -0.2632,-3.1107 -0.2985,-6.7909 0.2003,-9.7483 l 0.0313,-0.0315 c -0.0941,-0.4594 0.2986,-1.296 -0.2945,-1.3904 -0.864,0.3301 -1.2254,1.1272 -1.3275,2.0228 -0.0628,0.3299 -0.0628,0.762 0,1.0919 h 0.0629 c -0.0275,0.2356 0.0667,0.5617 -0.0982,0.6951 -0.0275,1.4651 -0.3261,2.7886 -1.1273,3.8138 -0.1649,0.4948 -0.8562,0.4359 -1.029,0.8954 h -0.0628 c -0.762,1.3944 -1.8892,2.7573 -3.2796,3.5819 -0.4006,0.0669 -0.7305,0.4676 -1.1665,0.1649 -0.6245,0.4676 -1.4532,0.6286 -2.1877,0.927 -0.0942,0.1377 -0.3652,-0.0275 -0.3927,0.1689 -0.8995,0.2632 -1.9913,0.0983 -2.7572,-0.2315 -0.1336,0 -0.2985,-0.0354 -0.326,0.0626 -1.3,0.5696 -2.655,0.1377 -4.1475,0.2319 v 0.0707 l -0.3339,-0.0707 c 0.0707,-0.3299 0.2632,-0.5971 0.3652,-0.9624 0.1965,-0.1965 0.1965,-0.4242 0.3339,-0.6558 0.3653,-0.5656 0.2279,-1.4925 0.6638,-2.0226 0.0354,-0.338 0.0982,-0.5658 0.3299,-0.7307 0.169,-0.1021 0.169,-0.3024 0.3614,-0.4673 -0.2986,-2.5492 1.3,-3.908 2.8553,-5.2042 0.2278,-0.267 0.7266,-0.3024 0.7266,-0.7266 0.8012,-1.2647 2.227,-1.7949 3.7823,-2.0267 v -0.0313 c 0.3339,-0.0313 0.8287,0.0982 0.9623,-0.267 1.1585,-0.8289 2.2191,0.267 3.3188,0.4672 1.52,0.4243 2.5176,-0.3377 3.5466,-0.9976 0.6284,-0.7618 1.1547,-1.6574 1.0565,-2.7846 h -0.0667 c 0,-0.6991 -0.0983,-1.2962 -0.2632,-1.9205 m -4.8702,21.7471 c -0.0393,-0.2947 -0.2004,-0.4597 -0.3378,-0.5971 v -0.1649 c 0.0354,-0.0629 -0.0275,-0.1296 -0.0982,-0.1296 -0.267,-1.0959 0.3967,-1.8225 1.0605,-2.2898 1.2647,-1.0252 3.0203,-1.2255 4.8113,-1.4258 v -0.0313 c 0.8915,-0.1023 1.8185,0.0942 2.3526,0.1649 v -0.0354 h 0.1021 v 0.0354 c 1.3275,0.165 2.384,0.5263 3.3463,1.1626 0.5617,0.6559 1.5592,1.2215 1.3629,2.4861 -0.271,0.5302 -0.5027,1.0919 -0.9623,1.4925 -0.2357,-0.0667 -0.3339,0.2946 -0.4635,0.0275 0.2946,-0.3928 0.5577,-0.8601 0.758,-1.2922 0.1023,-0.5301 -0.0626,-0.86 -0.2278,-1.2568 -0.4673,-0.7658 -1.3588,-1.0959 -2.2544,-0.9976 v 0.0707 c -1.2136,0.2515 -1.9598,0.3614 -2.0226,0.5617 l -1.0998,0.1296 c 0,0 -0.2945,0.0353 -0.5655,-0.0942 -1.3904,0 -2.1837,-0.7307 -3.5741,-0.7032 -1.033,0 -1.5907,0.5655 -1.9246,1.3591 -0.1374,0.4359 -0.1649,1.0956 0.2003,1.3982 0.0982,0.2629 0.2986,0.4948 0.3968,0.7972 h -0.0433 c -0.4321,0 -0.593,-0.4752 -0.8169,-0.6676 m -2.8554,-1.9521 c 0,-0.3693 -0.0354,-0.7974 0.2003,-1.029 0.3968,-0.0982 0.7266,0.2003 0.9623,0.0942 0.326,0 0.1295,0.4675 0.326,0.5971 -0.0982,0.4713 0.1728,0.762 0.2003,1.1626 -0.326,0.1649 -0.2631,-0.2947 -0.5617,-0.1296 -0.3298,-0.3654 -0.6991,-0.4675 -1.1272,-0.6953 m 16.2839,0.2278 c 0.0628,-0.3299 0.0628,-0.7305 0.1923,-0.9898 0.2711,-0.2003 0.7305,-0.1728 1.1626,-0.1728 0.0708,0.1374 0.0354,0.4321 0.1964,0.5655 v 0.5029 c -0.6285,0.1963 -1.0566,0.762 -1.7204,0.8208 0.1691,-0.1295 0,-0.5617 0.1691,-0.7266 M 510.2556,485.59 c 0.593,-0.102 0.9582,0.1336 1.5278,0.1336 1.2568,0.6913 3.146,0.267 4.4735,0 0.0667,-0.1336 0.3299,0.0354 0.3299,-0.1336 0.597,-0.0667 1.033,0.0354 1.4296,0.2632 0.5576,0.3024 0.6953,0.9976 0.5576,1.6889 -0.6244,0.9976 -1.5513,-0.1965 -2.5528,0.1374 -0.1257,0.0982 -0.4281,-0.0667 -0.4909,0.1336 -0.6009,0.0314 -1.029,0.3966 -1.3983,0.7972 -0.1649,0.0275 -0.0274,0.4596 -0.3299,0.3301 -0.2356,-0.5656 -0.7265,-0.8956 -1.2607,-1.0959 -0.5302,-0.3024 -1.3943,-0.165 -2.058,-0.1337 -0.2632,0.1023 -0.5971,0.1337 -0.8249,0.2319 -0.4635,-0.1296 -0.5301,-0.6599 -0.6009,-1.0605 0.1374,-0.0667 0.0708,-0.3024 0.0708,-0.4673 0.2277,-0.2319 0.4005,-0.6913 0.864,-0.6913 0.0392,-0.0824 0.1217,-0.055 0.1845,-0.055 0.0433,0 0.0787,-0.0117 0.0787,-0.0786 m -9.717,11.7044 c -0.1336,-0.1336 0.0354,-0.4281 -0.1649,-0.4988 -0.0628,-1.0565 -0.0628,-2.3173 0.2003,-3.2168 0.1296,-0.4634 0.1296,-0.864 0.3299,-1.2568 0.0628,-0.6678 0.4988,-1.033 0.597,-1.6576 h 0.0667 c 0.6638,-1.6574 1.8538,-2.8513 3.3817,-3.6133 1.0919,-0.2985 1.791,0.4595 2.3252,0.9937 0.1296,0.2003 0.2945,0.428 0.4281,0.5655 v 0.3614 h -0.2357 c -0.2278,-0.5969 -0.6912,-1.0644 -1.2922,-1.2609 -1.0605,-0.2629 -1.7202,0.3615 -2.2544,1.0293 -0.5617,0.9974 -0.0628,2.6197 -0.3927,3.7822 -0.169,0.2945 -0.2711,0.6285 -0.4006,0.9269 -0.3339,0.6285 -0.6325,1.2215 -1.0605,1.8185 -0.2986,0.2357 -0.3299,0.6638 -0.601,0.9662 0,0.6637 -0.2631,1.6261 0.2357,2.0541 0.1021,0.4006 0.5931,0.4989 0.8641,0.7266 0.6912,0.2357 1.3196,-0.1649 1.9559,-0.2277 -0.0667,0.4634 -0.6363,0.4634 -0.9623,0.593 -0.1375,0.1061 -0.4006,0 -0.4673,0.169 -0.055,0.004 -0.114,0.004 -0.1728,0.004 -1.3512,0 -2.1249,-1.143 -2.3802,-2.2583 m 19.3945,-8.354 c 0.5026,-0.8012 1.0956,-1.8893 2.2229,-1.8893 1.4965,0.2004 2.5924,1.3237 3.319,2.5136 0.0942,0.2672 0.2945,0.5696 0.4594,0.7032 0.2003,0.5617 0.4322,1.0211 0.6678,1.5513 h 0.0352 c 0.3655,0.8956 0.4596,2.0228 0.66,3.0205 0.1649,1.1939 -0.063,2.3918 -0.3653,3.3855 -0.3299,0.7894 -0.9623,1.3903 -1.9246,1.3903 v 0.0629 h -0.2591 v -0.0629 c -0.2357,-0.1649 -0.5657,0 -0.7619,-0.1649 -0.2712,-0.1649 -0.6679,-0.2356 -0.7308,-0.5617 0.5617,0.0629 1.0567,0.4243 1.7518,0.224 v -0.0275 l 0.3377,-0.0708 c 0.2947,-0.2277 0.7895,-0.4909 0.7895,-0.9544 0.3024,-0.6008 0.2319,-1.6927 -0.1296,-2.1915 -0.7973,-0.927 -1.3275,-1.9559 -1.6927,-3.1186 h -0.0354 l -0.0943,-0.8641 h -0.0706 c 0.0393,-1.3865 0.1334,-3.0479 -0.9938,-3.7468 -0.2945,-0.4597 -1.0957,-0.3261 -1.6574,-0.2947 -0.4948,0.2278 -0.7974,0.593 -1.0565,1.0959 -0.0315,0.1059 -0.1257,0.1491 -0.2199,0.1491 -0.114,0 -0.2318,-0.0628 -0.2514,-0.1491 m -8.2833,-0.3301 c 0.8248,-0.2003 1.2883,0.2593 1.791,0.6953 -0.0392,0.1611 0,0.326 0.1257,0.3614 -0.0275,1.1273 -0.2632,2.1522 -0.2278,3.3188 0.1296,0.165 0.2632,0.3927 0.6009,0.3299 1.19,-0.4007 0.0982,-1.8264 0.326,-2.5884 h -0.0628 v -0.0629 c 0.2003,-0.102 0.0628,-0.3965 -0.0354,-0.4673 0.0982,-0.597 0.2631,-1.1901 0.7974,-1.457 1.0918,-0.2004 2.1167,0.0667 2.9141,0.4948 1.1272,0.5301 1.6299,1.359 2.5255,2.1602 0.0667,0.2945 0.1963,0.4909 0.2945,0.7266 0.1295,0.267 0.2672,0.8287 0.1649,1.0291 -0.098,0.762 -0.8246,1.0289 -1.4217,1.2254 -0.1061,0.1021 -0.3652,-0.0707 -0.4006,0.1295 -0.6953,0.0354 -1.3275,0.0354 -1.8577,0.3653 -0.2672,0.169 -0.2318,0.6324 -0.1023,0.8681 0.1729,0.1296 0.338,0.2945 0.6325,0.2316 0.3024,-0.0667 0.5617,-0.267 0.7974,-0.4006 0.86,-0.1649 1.457,-0.9582 2.3524,-0.7304 0.6325,0 0.8641,0.695 1.0644,1.131 0.1298,0.0629 -0.0313,0.2632 0.1652,0.2632 0.0626,0.8248 0.0626,1.8263 -0.1965,2.5176 0,0.5617 -0.436,0.8994 -0.4988,1.4257 -0.5028,0.9662 -1.2293,1.7557 -2.3566,2.0267 v -0.0707 c -0.5301,0.0982 -0.6953,-0.3928 -1.0605,-0.5656 0,-0.1964 -0.1374,-0.2985 -0.3337,-0.3614 -0.2278,-0.4988 -0.5658,-0.9269 -0.6953,-1.5278 -0.2632,-0.2985 -0.3652,-0.7895 -0.9582,-0.6638 -0.3693,0.1375 -0.4007,0.6992 -0.2986,1.029 h 0.0983 c 0.593,0.9977 1.8538,1.4966 1.9559,2.8908 -0.165,0.9898 -1.1272,1.4532 -2.0542,1.6182 -0.0707,0.1336 -0.3298,-0.0276 -0.3298,0.1689 l -1.5279,0.0667 v 0.0629 c -0.1689,-0.1296 -0.4988,-0.0629 -0.7973,-0.0983 -0.4006,-0.2944 -0.6009,0.0354 -1.029,-0.2944 -0.9623,-0.169 -1.8264,-0.762 -1.9913,-1.7597 0.3652,-1.2293 1.3942,-1.893 2.1916,-2.7492 v -0.5971 c -0.1336,-0.3378 -0.4281,-0.3378 -0.7974,-0.3378 -0.3298,0.0708 -0.3652,0.4006 -0.593,0.6009 -0.1649,0.4006 -0.3652,0.7974 -0.4634,1.2255 -0.5342,0.3652 -0.6363,0.8994 -1.2293,1.1939 -1.3237,0.1965 -1.7597,-0.7305 -2.451,-1.457 -0.3652,-0.6992 -0.6009,-1.465 -0.8287,-2.1917 -0.1374,-0.0982 0.0275,-0.3614 -0.1728,-0.4005 l -0.0275,-1.3904 c 0.0983,-0.7974 0.2986,-1.5907 1.029,-1.8538 0.66,-0.0983 1.1901,0.1295 1.6182,0.3651 0.762,0.0983 1.198,0.8249 2.0621,0.7621 0.1649,-0.2004 0.5262,-0.2358 0.4634,-0.601 -0.1649,-0.2631 -0.2357,-0.7266 -0.6638,-0.6558 -1.0289,-0.169 -2.1562,-0.2357 -2.9182,-0.7974 -0.2003,-0.3299 -0.4006,-0.7345 -0.3652,-1.0644 -0.0707,-0.3927 0.2278,-0.4634 0.1649,-0.8641 0.2003,-0.3613 0.3653,-0.6912 0.6638,-0.9268 0.5263,-0.5617 1.029,-1.2922 1.8263,-1.524 0.4635,-0.3299 0.9545,-0.6284 1.6182,-0.6951 0.0825,-0.0787 0.2199,-0.0512 0.3299,-0.0512 0.0786,0 0.1453,-0.0117 0.1728,-0.0786 m -5.8011,0.2593 c 0.4635,0.2003 0.9545,0.4006 1.1901,0.8954 -0.5617,0.9623 -1.2254,1.8892 -0.9269,3.2483 h 0.0628 c 0,0.4006 0.1375,0.6992 0.4007,0.8995 0.0628,0.4988 -0.5342,0.3927 -0.7934,0.5929 -1.033,0.6638 -1.2333,1.9285 -1.2962,3.2168 -0.2003,0.4634 -1.0918,0.3023 -1.4571,0.1375 -0.3692,-0.3378 -0.6991,-0.7346 -0.6991,-1.2923 h 0.0708 l 0.0941,-0.7698 c 0.165,0 0,-0.1924 0.1337,-0.2632 0.2316,-0.267 0.3298,-0.6283 0.6009,-0.8286 0.0274,-0.3299 0.2985,-0.4635 0.3298,-0.7621 0.3968,-0.3298 0.3614,-0.9582 0.5617,-1.4217 0.1021,-0.3652 -0.0629,-0.8955 0.1296,-1.1625 0.0353,-0.165 -0.0275,-0.3653 -0.0942,-0.4322 0.1649,-0.0707 0.0667,-0.3652 0.0942,-0.4948 0.1061,-0.6678 0.4988,-1.1979 1.0605,-1.4258 0.0784,-0.0587 0.2159,-0.0312 0.3337,-0.0312 0.0944,0 0.1728,-0.0158 0.2043,-0.1062 m 17.4345,8.8529 c -0.0275,-1.4532 -0.4987,-2.6512 -1.6259,-3.3109 -0.1256,-0.1336 -0.5263,-0.1061 -0.4909,-0.3693 0.5302,-0.4635 0.6598,-1.3904 0.4595,-2.1563 -0.1296,-0.0943 0.0314,-0.3613 -0.165,-0.3967 -0.1295,-0.5617 -0.3968,-0.9898 -0.6951,-1.4571 -0.1651,-0.3298 0.1295,-0.597 0.2983,-0.7266 0.2319,-0.1061 0.4322,-0.2003 0.6325,-0.2986 0.2945,0.0275 0.597,-0.0353 0.7973,0.0983 0.9896,0.5263 0.9896,1.787 1.0919,2.9495 h 0.0313 c 0.0354,0.2319 -0.1336,0.6325 0.1336,0.7307 -0.0354,0.2003 0.0354,0.4281 0.1295,0.5302 0.0708,0.5263 0.3968,1.0959 0.6679,1.524 0.2945,0.6637 0.8246,1.029 0.8246,1.8576 -0.0941,0.169 -0.1649,0.4281 -0.1334,0.6992 -0.2475,0.5263 -0.821,0.762 -1.4651,0.762 -0.0431,0 -0.0825,0 -0.1217,0 -0.169,-0.0983 -0.3024,-0.271 -0.3693,-0.436 m -18.8287,2.1916 c 0.1296,0.0354 0.4281,-0.0708 0.4594,0.1295 -0.0667,0.2986 -0.4281,0.169 -0.5576,0.3339 -0.5342,0.0354 -0.9977,0.3653 -1.1626,0.8287 -0.2985,0.4006 -0.2357,1.0252 -0.1021,1.4925 0.0354,0.1965 0.1021,0.3614 0.267,0.4281 0.6638,1.524 2.7179,1.2333 3.8098,2.1877 0.3339,0.4006 0.8327,0.4989 1.033,0.9662 0.9936,1.0605 1.52,2.6158 3.3463,2.4822 0.6991,-0.0588 1.2568,-0.5576 1.4571,-1.1547 0.0354,-0.4006 0.1649,-0.9307 0.0982,-1.194 0.0667,-0.0353 0,-0.3338 0.2711,-0.2356 0.3927,0.6284 0.0667,1.4925 -0.0354,2.1562 -0.2357,0.4989 -0.7266,0.8916 -1.2608,0.9623 -0.0667,0.1296 -0.3299,-0.0354 -0.3299,0.1649 -0.8287,0.0708 -1.4611,-0.1295 -2.1916,-0.2003 -0.4634,-0.0982 -0.8915,-0.1649 -1.1547,-0.4634 -0.3652,0.0354 -0.4988,-0.2632 -0.7974,-0.2632 -0.2669,-0.4359 -0.8994,-0.3024 -1.1664,-0.7658 -1.1272,-0.491 -1.9167,-1.52 -2.7454,-2.3527 -0.4634,-0.7933 -1.033,-1.2293 -1.198,-2.1562 -0.1295,-0.0982 0.0354,-0.3652 -0.1649,-0.3652 l -0.0353,-1.1548 c 0.1336,-0.9347 0.864,-1.3982 1.6927,-1.626 v -0.0708 l 0.0904,0.0118 c 0.1453,0 0.2945,-0.0588 0.3771,-0.1413 m -4.4814,1.1626 c -0.1336,-0.436 0.1649,-0.6638 0.267,-1.0331 0.762,-0.0941 1.3275,0.169 2.0267,0.1336 v 0.1021 c -0.436,0.3614 -0.9662,0.762 -1.4296,1.2255 -0.334,0 -0.5263,-0.3614 -0.8641,-0.4281 m 19.5003,5.2668 c 1.1273,-1.2921 2.8202,-1.6573 4.2773,-2.384 0.5971,-0.2631 0.7267,-0.8994 0.9269,-1.3903 0.3024,-0.8995 -0.2002,-1.5279 -0.7266,-1.956 -0.3652,-0.1728 -0.9661,-0.1336 -1.1272,-0.4988 0.8287,-0.1375 1.7869,0.2631 2.2898,0.9269 0.1963,0.0629 0.0313,0.3652 0.2591,0.4006 0,0.2278 0,0.5263 0.165,0.6559 -0.165,0.4006 -0.0627,1.029 -0.2984,1.3983 -0.1611,0.2003 -0.2593,0.3927 -0.2593,0.6912 h -0.1021 c -0.0982,0.0354 -0.0353,0.1728 -0.0707,0.2357 -0.1965,0.1296 -0.2591,0.4281 -0.3968,0.6637 -1.6848,2.0542 -3.7744,3.747 -6.5315,4.3125 v 0.0628 l -1.622,0.0354 c -0.7266,-0.1374 -1.3629,-0.5342 -1.7556,-1.1272 -0.1336,-0.0708 0.0314,-0.2985 -0.1336,-0.2985 l -0.0708,-0.6951 c 0,-0.169 -0.1649,-0.2357 0,-0.3339 -0.0313,-0.0354 -0.0313,-0.0708 -0.0941,-0.0708 0.2003,-0.1649 0.0274,-0.5577 0.1649,-0.7933 h 0.2985 v 1.029 c 0.2278,0.6637 0.6284,1.3904 1.3276,1.5553 0.1491,0.0274 0.2944,0.0392 0.4319,0.0392 1.5199,0 2.2585,-1.4217 3.0477,-2.4586 m 7.3605,-4.8033 c -0.4673,-0.436 -0.9583,-0.7621 -1.3943,-1.198 l 1.2607,-0.0982 v -0.0668 h 0.762 c 0.1374,0.3024 0.3652,0.4948 0.3298,0.8995 -0.3219,0.1453 -0.436,0.4751 -0.8129,0.4751 -0.0433,0 -0.0942,-0.004 -0.1453,-0.0116 m -21.6215,-0.6992 c 0.2986,0.0354 0.4635,0.2632 0.5696,0.4988 0.8562,0.7934 1.7203,1.7203 3.1106,1.4217 v -0.0628 c 0.165,0.0354 0.3653,-0.0313 0.4361,-0.1295 l 0.2002,0.2277 c 0,0.2003 -0.0707,0.2632 -0.106,0.4281 0,0 0.0353,0.0707 0.106,0.0354 0.0275,0.436 0.0942,0.762 0.3928,0.9623 0.0982,0.4635 0.5617,0.6284 0.8287,0.9661 0.5616,0.4281 1.4964,0.3614 1.6889,1.0919 -0.0982,0.0982 -0.1649,0.2985 -0.1258,0.4634 l -0.7029,0.762 c -2.3173,0.3652 -2.5176,-2.0267 -4.1437,-2.7533 -0.9898,-0.8286 -2.6197,-0.7579 -3.1814,-2.0541 -0.1021,-0.0667 0.0708,-0.3299 -0.1295,-0.3299 -0.0354,-0.4634 0.2632,-0.8012 0.3652,-1.1979 l 0.0392,0.004 c 0.2985,0 0.4006,-0.3337 0.652,-0.3337 m 17.1754,0.0354 c 0.5971,0.1296 0.9623,0.6638 1.2293,1.1272 0.0354,0.7933 -0.3339,1.4571 -0.9936,1.7556 -0.267,0 -0.3652,0.3299 -0.6324,0.2357 -0.593,0.4281 -1.3904,0.4635 -1.8577,0.9936 -1.4217,0.6638 -1.622,2.5805 -3.4446,2.6472 l -0.0666,-0.0942 c -0.5302,0.1296 -0.7659,-0.3339 -1.0291,-0.597 0.1021,-0.4007 -0.2985,-0.4674 -0.1689,-0.8955 0.4321,-0.2631 0.8681,-0.6324 1.4296,-0.7345 0.7935,-0.5263 1.3904,-1.3196 1.4573,-2.2819 h -0.0354 v -0.3339 c 0.1334,-0.1021 0.3337,0.0354 0.4673,0.0628 0.2514,0.0787 0.4909,0.11 0.7149,0.11 1.3392,0 2.1366,-1.2293 2.9299,-1.9951 m -9.2181,9.8465 v -0.169 l -0.0667,-0.0667 c 0.1021,-0.3967 0.3378,-0.6245 0.4989,-0.9898 0,-0.2985 0.1374,-0.4988 0.3023,-0.6991 l 0.2278,0.2631 c -0.0667,0.6364 0.6363,1.0016 0.4989,1.5632 -0.165,0.0983 -0.4281,0.334 -0.4989,0.4989 -0.0746,0.0313 -0.1415,0.043 -0.2003,0.043 -0.3102,0 -0.4556,-0.3612 -0.762,-0.4436 m -31.4442,3.4916 h 63.2852 l 1.4494,26.8569 h -66.0858 l 1.3512,-26.8569" /><path
           id="path1037"
           style="fill:#f0f0f3;fill-opacity:1;fill-rule:nonzero;stroke:none"
           d="m 513.4291,453.9493 v 0" /><path
           id="path1039"
           style="fill:#deddde;fill-opacity:1;fill-rule:nonzero;stroke:none"
           d="m 513.0402,493.6142 c -1.029,0.3652 -1.8264,1.0919 -2.0895,2.1837 -0.0314,0.2003 0.0707,0.4714 -0.1021,0.5696 0.0707,0.5576 0.2003,1.1272 0.4006,1.6182 0.4006,0.5655 0.864,1.3 1.6614,1.3667 0.1296,0.0628 0.4281,0.0275 0.5577,0.1965 h 0.8286 c 0.0708,-0.1965 0.3693,-0.0354 0.5343,-0.169 0.4634,-0.1649 0.7933,-0.4281 1.2608,-0.6913 0.7618,-0.9269 1.0249,-2.2936 0.4948,-3.5191 -0.4948,-0.864 -1.355,-1.4258 -2.4194,-1.626 l -0.6991,-0.0589 c -0.0275,0.1925 -0.2986,0.0314 -0.4281,0.1296" /><path
           id="path1041"
           style="fill:#deddde;fill-opacity:1;fill-rule:nonzero;stroke:none"
           d="m 518.4956,495.9786 c 0,0.2003 -0.4242,0.2985 -0.1965,0.4281 l 0.6129,-0.2082 v -0.0667 c 0.5301,0 1.2921,-0.2003 1.457,0.4359 -0.0707,0.2632 -0.0982,0.491 -0.2002,0.7267 -0.3299,0.267 -0.3299,0.7658 -0.5656,1.0918 0.0708,0.4007 -0.2318,0.5656 -0.1298,0.9937 -0.2002,0.3692 -0.102,1.033 -0.6676,1.033 -0.4596,0.0667 -0.6912,-0.436 -1.0564,-0.597 -0.165,-0.1021 -0.1611,-0.5735 -0.4556,-0.4714 -0.2357,0.6324 0.4909,1.0684 0.6872,1.5986 0.3652,0.3613 0.762,0.8248 1.4611,0.6912 0.1611,-0.0941 0.2319,-0.2278 0.3968,-0.3299 0.1649,-0.6637 0.2316,-1.5277 0.3299,-2.219 0.2002,-0.0982 -0.0354,-0.4635 0.2002,-0.6324 0.1296,-1.029 1.8893,-2.1563 0.6325,-3.0478 -0.1808,-0.0707 -0.3535,-0.1021 -0.5225,-0.1021 -0.703,0 -1.3158,0.5106 -1.9834,0.6755" /><path
           id="path1043"
           style="fill:#deddde;fill-opacity:1;fill-rule:nonzero;stroke:none"
           d="m 510.9507,501.7404 c -0.0668,0.4635 -0.4281,0.8562 -0.2357,1.4218 0.0707,0.3614 0.5342,0.3967 0.7974,0.5616 v -0.0274 c 0.9976,-0.3653 2.2269,-0.4714 3.4524,-0.3378 0.3298,0.165 0.7933,0.165 1.1585,0.3652 0.2986,-0.1295 0.6991,-0.0982 0.9308,-0.4281 0.1297,-0.4634 0.1297,-0.6637 0,-1.1625 -0.2003,-0.0983 -0.1375,-0.2632 -0.267,-0.4635 -0.2632,-0.2278 -0.6284,-0.593 -0.7579,-0.9269 -0.1337,-0.1296 -0.2986,-0.2357 -0.5264,-0.1649 -0.0354,0.7619 1.1194,1.5553 0.2553,2.0895 -0.762,0.1649 -1.1272,-0.2986 -1.8539,-0.1336 l -0.9936,0.0354 -0.0354,0.0982 c -0.2003,-0.0982 -1.0251,0.2278 -1.1272,-0.2986 -0.2631,-0.6284 0.4281,-1.1272 0.6205,-1.6614 0.1061,-0.2278 -0.2278,-0.1295 -0.2278,-0.2278 -0.4006,0.3261 -0.8287,0.7895 -1.19,1.2608" /><path
           id="path1045"
           style="fill:#deddde;fill-opacity:1;fill-rule:nonzero;stroke:none"
           d="m 506.4105,495.6683 c -0.1337,0.1296 0.0274,0.4635 -0.1691,0.5302 0.1965,0 0.0354,0.2632 0.1691,0.3692 0.1295,0.5303 0.6912,0.8563 0.7579,1.418 0.271,0.0391 0.1061,0.3023 0.2003,0.4359 0.2003,0 0.0354,0.267 0.1336,0.3299 0.4634,0.864 -0.2986,2.6197 0.9936,2.8828 1.0959,-0.0941 1.3629,-1.1272 1.9325,-1.8576 l 0.1924,-0.3261 -0.2907,-0.0707 c -0.5341,0.169 -0.7737,1.1272 -1.5985,0.8994 -0.267,-0.3298 -0.3024,-0.6638 -0.3299,-1.1272 -0.2003,-0.0667 -0.0354,-0.3652 -0.1336,-0.4988 -0.1375,-0.8916 -0.8994,-1.4218 -0.8012,-2.384 0.5696,-0.4989 1.4454,0.2435 2.0737,-0.055 -0.0666,-0.2278 -0.6205,-0.3614 -0.8129,-0.5264 -0.4988,-0.2003 -0.923,-0.3534 -1.3903,-0.5184 -0.3614,0.0982 -0.7974,0.1374 -0.9269,0.4988" /><path
           id="path1047"
           style="fill:#deddde;fill-opacity:1;fill-rule:nonzero;stroke:none"
           d="m 511.7834,489.172 c -0.9348,0.6245 -1.4257,1.8579 -2.5884,2.1878 -0.6009,0.4947 -1.8576,0.4319 -1.8263,1.4924 -0.0313,0.8915 0.8994,0.9269 1.4611,1.2883 0.4006,0.0392 0.762,0.1492 1.2293,0.1021 l -0.0667,-0.2278 c -0.5342,-0.3377 -1.3629,-0.436 -1.3629,-1.1626 0.2003,-0.7305 1.029,-0.6951 1.4296,-1.1272 0.8602,-0.3652 1.0252,-1.3275 2.117,-1.3629 0.2985,0.3652 0.5342,0.762 0.4988,1.3629 0.2003,0.0667 -0.1886,0.5813 0.1375,0.4517 0.271,-0.5029 0.2906,-1.1468 0.326,-1.8146 -0.1336,-0.1296 -0.1336,-0.3968 -0.1336,-0.6597 -0.2474,-0.2515 -0.5185,-0.5696 -0.9544,-0.5696 -0.0825,0 -0.1728,0.0117 -0.267,0.0392" /><path
           id="path1049"
           style="fill:#deddde;fill-opacity:1;fill-rule:nonzero;stroke:none"
           d="m 515.059,489.3056 c -0.1925,0.2945 -0.3928,0.5617 -0.3928,0.9623 -0.1335,0.4594 -0.0707,0.6717 -0.0707,1.2331 0.0982,0.2907 0.0707,0.821 0.2985,0.6207 0.3378,-0.5303 0.0708,-1.6222 0.8995,-1.7596 0.9582,0.5655 1.6887,1.5593 2.7533,1.9599 0.3298,0.0354 0.5301,0.3928 0.6596,0.6913 -0.3652,0.5302 -1.0605,0.703 -1.626,1.0369 0,0.1021 0.0669,0.3614 0.2043,0.3614 0.7621,-0.1061 1.4217,-0.3339 2.0542,-0.5971 0.3652,-0.1374 0.3965,-0.6009 0.5655,-0.9269 -0.0354,-0.3653 -0.2356,-0.7659 -0.5655,-0.9308 -0.436,0.0627 -0.6325,-0.33 -1.0331,-0.33 -0.1964,-0.165 -0.4596,-0.2003 -0.6245,-0.432 -0.9621,-0.4005 -1.3942,-1.4924 -2.2858,-2.0895 -0.271,0 -0.6637,0 -0.8365,0.2003" /><path
           id="path1051"
           style="fill:#deddde;fill-opacity:1;fill-rule:nonzero;stroke:none"
           d="m 520.5144,523.7625 c -0.2003,0.1374 -0.2357,0.4635 -0.1649,0.6638 h 0.0666 l 0.0983,0.8286 h 0.0354 c 0.1649,0.7973 -0.0354,1.4965 -0.3653,2.0542 -0.3654,0 -0.6324,0.1336 -0.5303,0.5696 h 0.0628 l 0.1021,1.1231 0.0629,0.0354 c -0.2592,0.6637 0,1.6535 -0.2278,2.3173 h 0.0628 l 0.1021,1.2646 c 0.2005,0 -0.0352,0.326 0.1652,0.326 -0.1023,0.8013 1.1898,1.2334 0.3298,1.956 -0.1296,0.271 -0.1649,0.5971 0.1374,0.7973 h 0.5302 v -0.0628 c 0.2593,0 0.5303,-0.1374 0.8248,-0.0707 0.3653,0.6363 1.4296,0.0707 1.7597,0.8327 0.3966,-0.0708 0.695,-0.4321 1.1624,-0.2357 0.1651,0.1021 0.2947,0.436 0.5616,0.2357 0.2948,-0.2985 0.7307,-0.762 1.1627,-0.3693 0.2278,-0.1924 0.4596,-0.6284 0.8602,-0.5301 0.2944,0.0667 1.1272,0.3377 1.1939,-0.2278 -0.0313,-0.7267 -1.1272,-0.927 -0.4673,-1.7597 0.1334,-0.9936 0.0354,-2.2857 0.6009,-3.0831 -0.0707,-0.2986 -0.3339,-0.4006 -0.4006,-0.6991 v -3.311 c -0.4006,-0.1021 -0.4675,-0.5656 -0.4675,-0.864 0.0669,-0.2986 0.1061,-0.601 -0.3299,-0.601 -0.3651,0.1021 -0.597,-0.326 -0.7619,-0.5616 l -0.1963,-0.1925 c -0.1927,-0.1061 -0.1298,-0.271 -0.2632,-0.4713 -0.3967,-0.4281 -0.6362,-0.7659 -1.0959,-0.9936 -0.4319,-0.0708 -0.4673,0.6912 -0.8641,0.3927 -0.2631,-0.4635 -0.695,-0.6638 -1.2567,-0.6913 -0.9623,0.4281 -0.9623,1.7281 -2.4901,1.3276 m 2.4901,1.6889 h 0.5263 c 0.3299,0.2003 0.8954,0.3023 1.0249,0.8012 0.4676,0.2277 0.6325,-0.2004 0.9348,-0.3653 0.4597,0 0.4597,0.4594 0.6954,0.7305 0.1295,0.1336 0.2944,0.0982 0.3298,0.326 0.4673,0.1374 0.3024,0.8012 0.7266,1.029 l 0.1062,0.8287 h 0.0313 c -0.1021,0.5971 0.0236,1.2962 0.0628,1.9954 l -0.3651,0.0588 -0.1612,-0.8641 c 0.3653,-1.3942 -0.3652,-2.3565 -1.0564,-3.2127 -0.2004,-0.2003 -0.169,-0.4006 -0.5068,-0.334 -0.2278,0.165 -0.3298,0.3065 -0.6597,0.3065 -0.2356,-0.4047 -0.6324,-0.7345 -1.1272,-0.8719 -0.1652,0.0354 -0.169,0.2631 -0.271,0.4359 -0.2004,0.6913 -1.0566,1.0565 -1.2217,1.7556 -0.3298,-0.0354 -0.6989,-0.5617 -0.9267,-0.0354 0.0588,1.418 -0.7111,1.418 -0.7111,1.418 0.0354,-0.7895 0.4793,-1.4808 0.6088,-2.2388 0.3301,0 0.4675,0.1925 0.7974,0.1925 0.6325,-0.4635 1.2293,-0.9898 1.1626,-1.9559 m 0.7816,2.8004 c 0.1687,-0.0354 0.5772,-0.5264 0.7854,-0.1454 1.2687,0.3182 0.2161,2.0816 0.8837,2.82 0.7699,-0.11 0.1375,-1.3354 0.5263,-1.7635 l 0.2985,0.2474 h -0.0353 c 0.1219,0.6246 -0.0235,1.6144 0.1415,2.0778 l -0.2319,0.0667 0.0708,0.0707 v 0.4556 h -0.1729 c -0.0707,-0.4556 -0.4595,-0.7737 -0.8482,-0.9111 -0.3811,-0.0708 -0.5971,0.0666 -0.7386,0.3494 0.0354,0.8799 1.2138,0.8799 1.6772,1.4454 0.1021,0.3534 -0.1061,0.5263 -0.2473,0.7698 -0.0708,0.2475 -0.3026,0.4752 0.0195,0.5106 0.2749,0.0708 0.4164,0.0904 0.5617,-0.0471 0.3456,-0.0707 0.7697,0.3103 0.9466,0.5263 l -0.1415,0.1021 c -0.8758,-0.1021 -2.3174,-0.4556 -2.9183,0.3182 l -0.1059,-0.1729 c -0.0708,-0.4988 0.491,-0.4988 0.8129,-0.6716 0.169,-0.4556 0.6638,-0.6009 0.491,-1.2293 -0.322,-0.3535 -0.7384,-0.597 -1.198,-0.7424 -0.5263,0.1454 -1.1585,0.2515 -1.5159,0.6715 -0.2081,0.6993 0.4635,0.7739 0.4281,1.3356 0.0706,0.6009 -0.8485,0.3181 -1.2725,0.4555 v 0.0354 h -0.7386 c -0.102,-0.2436 0.1769,-0.1728 0.1769,-0.3889 0.3219,-0.1728 0.5264,-0.3102 0.8483,0 0.3143,0.1807 0.4596,-0.1374 0.593,-0.3102 -0.0352,0 -0.0352,-0.0746 -0.0981,-0.0354 l -0.2355,-0.4948 c -0.1416,-0.2082 -0.3851,-0.3142 -0.3144,-0.6324 0.3144,-0.3181 0.6717,-0.6363 1.1626,-0.703 0.3143,-0.0708 0.7542,-0.3889 0.7188,-0.7737 -0.1062,-0.2161 -0.279,-0.4243 -0.4948,-0.4243 -0.3103,-0.0354 -0.6325,0.2436 -0.872,0.4243 -0.1453,0.1374 -0.0707,0.7029 -0.4596,0.5223 -0.0354,-0.593 0.0471,-0.9112 -0.055,-1.5121 -0.0314,-0.2435 0.3144,-0.381 0.0667,-0.5617 0.1768,-0.1374 0,-0.5576 0.1414,-0.7737 h 0.3065 c 0,0.4556 -0.1807,1.3354 0.2395,1.7281 0.9858,-0.428 -0.1178,-2.1837 0.7974,-2.6392" /></g></g></g></svg>